<svg width="375" height="784" viewBox="0 0 375 784" fill="none" xmlns="http://www.w3.org/2000/svg">
<path d="M34.9998 221L270 308M34.9998 221L-81.2327 583.558L90.5458 569.776M34.9998 221L-185.454 -4.5625L131.5 128M34.9998 221L131.5 128M34.9998 221L131.5 381M270 308L627.83 532.474L380.131 699.021M270 308L380.131 699.021M270 308L131.5 381M270 308L599.611 192.594L131.5 128M380.131 699.021L90.5458 569.776M380.131 699.021L131.5 381M90.5458 569.776L131.5 381" stroke="#6CCCE1" stroke-dasharray="10 10"/>
<path d="M258 -83.5L129.5 131.5M258 -83.5L269.5 310L129.5 131.5M258 -83.5L481.5 163M129.5 131.5L-51 131.5M129.5 131.5L129.5 386.5L-51 486" stroke="#2E3237" stroke-opacity="0.7"/>
<path d="M258 -83.5L129.5 131.5M258 -83.5L269.5 310L129.5 131.5M258 -83.5L481.5 163M129.5 131.5L-51 131.5M129.5 131.5L129.5 386.5L-51 486" stroke="url(#paint0_linear)"/>
<path d="M258 -83.5L129.5 131.5M258 -83.5L269.5 310L129.5 131.5M258 -83.5L481.5 163M129.5 131.5L-51 131.5M129.5 131.5L129.5 386.5L-51 486" stroke="url(#paint1_linear)"/>
<circle cx="343.727" cy="12.7274" r="8.72736" fill="#C1E8F0"/>
<circle cx="343.727" cy="12.7274" r="8.72736" fill="url(#paint2_linear)"/>
<circle cx="383.325" cy="752.339" r="8.72736" fill="#CFAE6F"/>
<circle cx="354.364" cy="360.364" r="4.36368" fill="#C1E8F0"/>
<circle cx="19.3637" cy="132.364" r="4.36368" fill="#C1E8F0"/>
<circle cx="89.3637" cy="569.364" r="4.36368" fill="#CFAE6F"/>
<circle cx="356.364" cy="160.364" r="4.36368" fill="#C1E8F0"/>
<circle cx="265.364" cy="145.364" r="4.36368" fill="#C1E8F0"/>
<circle cx="50.3637" cy="431.364" r="4.36368" fill="#C1E8F0"/>
<circle cx="129.364" cy="256.364" r="4.36368" fill="#C1E8F0"/>
  <g class="svgDigitalMovable">
    <circle id="svg_digital_puls" class="pulsation" cx="125" cy="128" r="35" fill="#C08718" fill-opacity="0.4"/>
    <circle id="svg_digital"  class="clickForShowProject" cx="125" cy="128" r="20" fill="#C08718"/>
    <path id="svg_digital_text" class="point_text" d="M155.96 109.2H158.6V123.6H161.6V109.2H164.288V123.648H165.44V128.256H162.872V126H155.96V109.2ZM169.594 126H166.882V109.2H169.234V119.832L170.194 116.136L172.354 109.2H175.258V126H172.882V114.168L171.802 118.296L169.594 126ZM181.828 124.104H180.844C179.516 124.104 178.524 123.752 177.868 123.048C177.228 122.344 176.908 121.312 176.908 119.952V115.368C176.908 114.008 177.228 112.976 177.868 112.272C178.524 111.568 179.516 111.216 180.844 111.216H181.828V109.2H184.42V111.216H185.404C186.732 111.216 187.716 111.568 188.356 112.272C189.012 112.976 189.34 114.008 189.34 115.368V119.952C189.34 121.312 189.012 122.344 188.356 123.048C187.716 123.752 186.732 124.104 185.404 124.104H184.42V126H181.828V124.104ZM184.42 113.544V121.8H185.404C185.82 121.8 186.14 121.672 186.364 121.416C186.604 121.16 186.724 120.728 186.724 120.12V115.2C186.724 114.592 186.604 114.168 186.364 113.928C186.14 113.672 185.82 113.544 185.404 113.544H184.42ZM181.828 113.544H180.844C180.428 113.544 180.1 113.672 179.86 113.928C179.636 114.168 179.524 114.592 179.524 115.2V120.12C179.524 120.728 179.636 121.16 179.86 121.416C180.1 121.672 180.428 121.8 180.844 121.8H181.828V113.544ZM195.004 109.2C196.332 109.2 197.316 109.552 197.956 110.256C198.612 110.96 198.94 111.992 198.94 113.352V115.536C198.94 116.896 198.612 117.928 197.956 118.632C197.316 119.336 196.332 119.688 195.004 119.688H193.756V126H191.116V109.2H195.004ZM193.756 111.6V117.288H195.004C195.42 117.288 195.74 117.176 195.964 116.952C196.188 116.728 196.3 116.312 196.3 115.704V113.184C196.3 112.576 196.188 112.16 195.964 111.936C195.74 111.712 195.42 111.6 195.004 111.6H193.756ZM202.587 122.136C202.587 122.744 202.707 123.176 202.947 123.432C203.203 123.672 203.539 123.792 203.955 123.792C204.371 123.792 204.699 123.672 204.939 123.432C205.195 123.176 205.323 122.744 205.323 122.136V113.064C205.323 112.456 205.195 112.032 204.939 111.792C204.699 111.536 204.371 111.408 203.955 111.408C203.539 111.408 203.203 111.536 202.947 111.792C202.707 112.032 202.587 112.456 202.587 113.064V122.136ZM199.947 113.232C199.947 111.872 200.291 110.832 200.979 110.112C201.667 109.376 202.659 109.008 203.955 109.008C205.251 109.008 206.243 109.376 206.931 110.112C207.619 110.832 207.963 111.872 207.963 113.232V121.968C207.963 123.328 207.619 124.376 206.931 125.112C206.243 125.832 205.251 126.192 203.955 126.192C202.659 126.192 201.667 125.832 200.979 125.112C200.291 124.376 199.947 123.328 199.947 121.968V113.232ZM213.663 109.2C215.039 109.2 216.031 109.52 216.639 110.16C217.263 110.8 217.575 111.768 217.575 113.064V113.664C217.575 114.528 217.439 115.24 217.167 115.8C216.895 116.36 216.463 116.776 215.871 117.048C216.591 117.32 217.095 117.768 217.383 118.392C217.687 119 217.839 119.752 217.839 120.648V122.016C217.839 123.312 217.503 124.304 216.831 124.992C216.159 125.664 215.159 126 213.831 126H209.679V109.2H213.663ZM212.319 118.44V123.6H213.831C214.279 123.6 214.615 123.48 214.839 123.24C215.079 123 215.199 122.568 215.199 121.944V120.48C215.199 119.696 215.063 119.16 214.791 118.872C214.535 118.584 214.103 118.44 213.495 118.44H212.319ZM212.319 111.6V116.04H213.351C213.847 116.04 214.231 115.912 214.503 115.656C214.791 115.4 214.935 114.936 214.935 114.264V113.328C214.935 112.72 214.823 112.28 214.599 112.008C214.391 111.736 214.055 111.6 213.591 111.6H212.319ZM219.429 126V109.2H222.069V115.512H223.317C224.645 115.512 225.629 115.864 226.269 116.568C226.925 117.272 227.253 118.304 227.253 119.664V121.848C227.253 123.208 226.925 124.24 226.269 124.944C225.629 125.648 224.645 126 223.317 126H219.429ZM223.317 123.6C223.733 123.6 224.053 123.488 224.277 123.264C224.501 123.04 224.613 122.624 224.613 122.016V119.496C224.613 118.888 224.501 118.472 224.277 118.248C224.053 118.024 223.733 117.912 223.317 117.912H222.069V123.6H223.317ZM228.765 126V109.2H231.405V126H228.765ZM235.967 116.28H239.591V118.68H235.967V123.6H240.527V126H233.327V109.2H240.527V111.6H235.967V116.28ZM155.192 133.2H163.352V135.6H160.592V150H157.952V135.6H155.192V133.2ZM167.155 140.28H170.779V142.68H167.155V147.6H171.715V150H164.515V133.2H171.715V135.6H167.155V140.28ZM182.159 133.2L179.399 141.36L182.351 150H179.567L177.407 143.352L175.223 150H172.751L175.703 141.36L172.943 133.2H175.679L177.671 139.392L179.711 133.2H182.159ZM186.303 150H183.663V133.2H186.303V140.4H189.303V133.2H191.991V150H189.303V142.8H186.303V150ZM196.329 146.136C196.329 146.744 196.449 147.176 196.689 147.432C196.945 147.672 197.281 147.792 197.697 147.792C198.113 147.792 198.441 147.672 198.681 147.432C198.937 147.176 199.065 146.744 199.065 146.136V137.064C199.065 136.456 198.937 136.032 198.681 135.792C198.441 135.536 198.113 135.408 197.697 135.408C197.281 135.408 196.945 135.536 196.689 135.792C196.449 136.032 196.329 136.456 196.329 137.064V146.136ZM193.689 137.232C193.689 135.872 194.033 134.832 194.721 134.112C195.409 133.376 196.401 133.008 197.697 133.008C198.993 133.008 199.985 133.376 200.673 134.112C201.361 134.832 201.705 135.872 201.705 137.232V145.968C201.705 147.328 201.361 148.376 200.673 149.112C199.985 149.832 198.993 150.192 197.697 150.192C196.401 150.192 195.409 149.832 194.721 149.112C194.033 148.376 193.689 147.328 193.689 145.968V137.232ZM202.677 147.624C202.981 147.624 203.229 147.608 203.421 147.576C203.629 147.544 203.797 147.472 203.925 147.36C204.053 147.232 204.141 147.056 204.189 146.832C204.253 146.592 204.293 146.28 204.309 145.896L204.741 133.2H212.205V150H209.517V135.6H207.213L206.925 145.752C206.877 147.288 206.549 148.384 205.941 149.04C205.349 149.696 204.397 150.024 203.085 150.024H202.677V147.624ZM216.65 146.136C216.65 146.744 216.77 147.176 217.01 147.432C217.266 147.672 217.602 147.792 218.018 147.792C218.434 147.792 218.762 147.672 219.002 147.432C219.258 147.176 219.386 146.744 219.386 146.136V137.064C219.386 136.456 219.258 136.032 219.002 135.792C218.762 135.536 218.434 135.408 218.018 135.408C217.602 135.408 217.266 135.536 217.01 135.792C216.77 136.032 216.65 136.456 216.65 137.064V146.136ZM214.01 137.232C214.01 135.872 214.354 134.832 215.042 134.112C215.73 133.376 216.722 133.008 218.018 133.008C219.314 133.008 220.306 133.376 220.994 134.112C221.682 134.832 222.026 135.872 222.026 137.232V145.968C222.026 147.328 221.682 148.376 220.994 149.112C220.306 149.832 219.314 150.192 218.018 150.192C216.722 150.192 215.73 149.832 215.042 149.112C214.354 148.376 214.01 147.328 214.01 145.968V137.232ZM223.765 150V133.2H230.725V135.6H226.405V150H223.765ZM235.219 150H232.507V133.2H234.859V143.832L235.819 140.136L237.979 133.2H240.883V150H238.507V138.168L237.427 142.296L235.219 150ZM245.461 150H242.749V133.2H245.101V143.832L246.061 140.136L248.221 133.2H251.125V150H248.749V138.168L247.669 142.296L245.461 150Z" fill="#2E3237"/>
  </g>
        <g class="svgMobileMovable"> 
        
        <circle id="svg_energy_puls" cx="124" cy="379" class="pulsation" r="35" fill="#C08718" fill-opacity="0.4"/>
        <circle id="svg_energy" class="clickForShowProject" cx="124" cy="379" r="20" fill="#C08718"/>
        <path id="svg_energy_text" class="point_text" d="M157.12 366.976V369.136C157.12 369.744 157.24 370.168 157.48 370.408C157.736 370.648 158.072 370.768 158.488 370.768C158.904 370.768 159.232 370.648 159.472 370.408C159.728 370.168 159.856 369.744 159.856 369.136V365.512H157.432V363.112H159.856V360.064C159.856 359.456 159.728 359.032 159.472 358.792C159.232 358.536 158.904 358.408 158.488 358.408C158.072 358.408 157.736 358.536 157.48 358.792C157.24 359.032 157.12 359.456 157.12 360.064V361.648H154.672V360.232C154.672 358.872 154.992 357.832 155.632 357.112C156.288 356.376 157.264 356.008 158.56 356.008C159.856 356.008 160.832 356.376 161.488 357.112C162.16 357.832 162.496 358.872 162.496 360.232V368.968C162.496 370.328 162.16 371.376 161.488 372.112C160.832 372.832 159.856 373.192 158.56 373.192C157.264 373.192 156.28 372.832 155.608 372.112C154.952 371.376 154.624 370.328 154.624 368.968V366.976H157.12ZM166.858 373H164.218V356.2H166.858V363.4H169.858V356.2H172.546V373H169.858V365.8H166.858V373ZM177.1 363.28H180.724V365.68H177.1V370.6H181.66V373H174.46V356.2H181.66V358.6H177.1V363.28ZM187.184 356.2C188.512 356.2 189.496 356.552 190.136 357.256C190.792 357.96 191.12 358.992 191.12 360.352V362.536C191.12 363.896 190.792 364.928 190.136 365.632C189.496 366.336 188.512 366.688 187.184 366.688H185.936V373H183.296V356.2H187.184ZM185.936 358.6V364.288H187.184C187.6 364.288 187.92 364.176 188.144 363.952C188.368 363.728 188.48 363.312 188.48 362.704V360.184C188.48 359.576 188.368 359.16 188.144 358.936C187.92 358.712 187.6 358.6 187.184 358.6H185.936ZM192.367 373V356.2H199.327V358.6H195.007V373H192.367ZM203.748 363.28H207.372V365.68H203.748V370.6H208.308V373H201.108V356.2H208.308V358.6H203.748V363.28ZM209.176 356.2H217.336V358.6H214.576V373H211.936V358.6H209.176V356.2ZM221.211 373H218.499V356.2H220.851V366.832L221.811 363.136L223.971 356.2H226.875V373H224.499V361.168L223.419 365.296L221.211 373ZM232.197 366.304L231.381 367.84V373H228.741V356.2H231.381V363.52L234.837 356.2H237.477L233.805 363.688L237.477 373H234.765L232.197 366.304ZM247.223 373H244.559L244.103 369.952H240.863L240.407 373H237.983L240.671 356.2H244.535L247.223 373ZM241.199 367.672H243.743L242.471 359.176L241.199 367.672ZM157.672 397H154.96V380.2H157.312V390.832L158.272 387.136L160.432 380.2H163.336V397H160.96V385.168L159.88 389.296L157.672 397ZM171.089 390.976V393.136C171.089 393.744 171.209 394.168 171.449 394.408C171.705 394.648 172.041 394.768 172.457 394.768C172.873 394.768 173.201 394.648 173.441 394.408C173.697 394.168 173.825 393.744 173.825 393.136V389.512H171.401V387.112H173.825V384.064C173.825 383.456 173.697 383.032 173.441 382.792C173.201 382.536 172.873 382.408 172.457 382.408C172.041 382.408 171.705 382.536 171.449 382.792C171.209 383.032 171.089 383.456 171.089 384.064V385.648H168.641V384.232C168.641 382.872 168.961 381.832 169.601 381.112C170.257 380.376 171.233 380.008 172.529 380.008C173.825 380.008 174.801 380.376 175.457 381.112C176.129 381.832 176.465 382.872 176.465 384.232V392.968C176.465 394.328 176.129 395.376 175.457 396.112C174.801 396.832 173.825 397.192 172.529 397.192C171.233 397.192 170.249 396.832 169.577 396.112C168.921 395.376 168.593 394.328 168.593 392.968V390.976H171.089ZM180.827 397H178.187V380.2H180.827V387.4H183.827V380.2H186.515V397H183.827V389.8H180.827V397ZM191.069 387.28H194.693V389.68H191.069V394.6H195.629V397H188.429V380.2H195.629V382.6H191.069V387.28ZM201.153 380.2C202.481 380.2 203.465 380.552 204.105 381.256C204.761 381.96 205.089 382.992 205.089 384.352V386.536C205.089 387.896 204.761 388.928 204.105 389.632C203.465 390.336 202.481 390.688 201.153 390.688H199.905V397H197.265V380.2H201.153ZM199.905 382.6V388.288H201.153C201.569 388.288 201.889 388.176 202.113 387.952C202.337 387.728 202.449 387.312 202.449 386.704V384.184C202.449 383.576 202.337 383.16 202.113 382.936C201.889 382.712 201.569 382.6 201.153 382.6H199.905ZM206.336 397V380.2H213.296V382.6H208.976V397H206.336ZM217.501 393.136C217.501 393.744 217.621 394.176 217.861 394.432C218.117 394.672 218.453 394.792 218.869 394.792C219.285 394.792 219.613 394.672 219.853 394.432C220.109 394.176 220.237 393.744 220.237 393.136V384.064C220.237 383.456 220.109 383.032 219.853 382.792C219.613 382.536 219.285 382.408 218.869 382.408C218.453 382.408 218.117 382.536 217.861 382.792C217.621 383.032 217.501 383.456 217.501 384.064V393.136ZM214.861 384.232C214.861 382.872 215.205 381.832 215.893 381.112C216.581 380.376 217.573 380.008 218.869 380.008C220.165 380.008 221.157 380.376 221.845 381.112C222.533 381.832 222.877 382.872 222.877 384.232V392.968C222.877 394.328 222.533 395.376 221.845 396.112C221.157 396.832 220.165 397.192 218.869 397.192C217.573 397.192 216.581 396.832 215.893 396.112C215.205 395.376 214.861 394.328 214.861 392.968V384.232ZM232.249 390.736V392.968C232.249 394.328 231.913 395.376 231.241 396.112C230.585 396.832 229.609 397.192 228.313 397.192C227.017 397.192 226.033 396.832 225.361 396.112C224.705 395.376 224.377 394.328 224.377 392.968V384.232C224.377 382.872 224.705 381.832 225.361 381.112C226.033 380.376 227.017 380.008 228.313 380.008C229.609 380.008 230.585 380.376 231.241 381.112C231.913 381.832 232.249 382.872 232.249 384.232V385.864H229.753V384.064C229.753 383.456 229.625 383.032 229.369 382.792C229.129 382.536 228.801 382.408 228.385 382.408C227.969 382.408 227.633 382.536 227.377 382.792C227.137 383.032 227.017 383.456 227.017 384.064V393.136C227.017 393.744 227.137 394.168 227.377 394.408C227.633 394.648 227.969 394.768 228.385 394.768C228.801 394.768 229.129 394.648 229.369 394.408C229.625 394.168 229.753 393.744 229.753 393.136V390.736H232.249ZM233.875 397V380.2H241.267V382.6H236.515V386.896H238.051C239.379 386.896 240.371 387.248 241.027 387.952C241.699 388.656 242.035 389.688 242.035 391.048V392.848C242.035 394.208 241.699 395.24 241.027 395.944C240.371 396.648 239.379 397 238.051 397H233.875ZM238.051 394.6C238.467 394.6 238.795 394.488 239.035 394.264C239.275 394.04 239.395 393.624 239.395 393.016V390.88C239.395 390.272 239.275 389.856 239.035 389.632C238.795 389.408 238.467 389.296 238.051 389.296H236.515V394.6H238.051ZM246.452 387.28H250.076V389.68H246.452V394.6H251.012V397H243.812V380.2H251.012V382.6H246.452V387.28ZM256.536 380.2C257.864 380.2 258.848 380.552 259.488 381.256C260.144 381.96 260.472 382.992 260.472 384.352V386.536C260.472 387.896 260.144 388.928 259.488 389.632C258.848 390.336 257.864 390.688 256.536 390.688H255.288V397H252.648V380.2H256.536ZM255.288 382.6V388.288H256.536C256.952 388.288 257.272 388.176 257.496 387.952C257.72 387.728 257.832 387.312 257.832 386.704V384.184C257.832 383.576 257.72 383.16 257.496 382.936C257.272 382.712 256.952 382.6 256.536 382.6H255.288ZM264.334 387.28H267.958V389.68H264.334V394.6H268.894V397H261.694V380.2H268.894V382.6H264.334V387.28ZM278.138 386.992L281.258 380.2H283.898L280.658 387.016L283.898 397H281.186L278.786 389.56L278.138 390.832V397H275.522V390.832L274.874 389.536L272.474 397H269.762L273.026 387.088L269.762 380.2H272.402L275.522 386.992V380.2H278.138V386.992ZM287.655 387.28H291.279V389.68H287.655V394.6H292.215V397H285.015V380.2H292.215V382.6H287.655V387.28ZM296.491 397H293.851V380.2H296.491V387.4H299.491V380.2H302.179V397H299.491V389.8H296.491V397ZM306.805 397H304.093V380.2H306.445V390.832L307.405 387.136L309.565 380.2H312.469V397H310.093V385.168L309.013 389.296L306.805 397ZM316.975 387.28H320.599V389.68H316.975V394.6H321.535V397H314.335V380.2H321.535V382.6H316.975V387.28Z" fill="#2E3237"/>
   
        </g>
   <circle id="svg_food_puls" cx="35" cy="220" class="pulsation" r="35" fill="#C08718" fill-opacity="0.4"/>
<circle id="svg_food" class="clickForShowProject" cx="35" cy="220" r="20" fill="#C08718"/>
<path id="svg_food_text" class="point_text" d="M68.6 214H65.96V197.2H74.288V214H71.6V199.6H68.6V214ZM78.9142 214H76.2022V197.2H78.5542V207.832L79.5142 204.136L81.6742 197.2H84.5782V214H82.2022V202.168L81.1222 206.296L78.9142 214ZM98.9244 211.648H100.1V216.256H97.5324V214H86.4444V197.2H89.0844V211.6H91.3644V197.2H94.0044V211.6H96.2844V197.2H98.9244V211.648ZM104.178 204.28H107.802V206.68H104.178V211.6H108.738V214H101.538V197.2H108.738V199.6H104.178V204.28ZM114.358 197.2C115.734 197.2 116.726 197.52 117.334 198.16C117.958 198.8 118.27 199.768 118.27 201.064V201.664C118.27 202.528 118.134 203.24 117.862 203.8C117.59 204.36 117.158 204.776 116.566 205.048C117.286 205.32 117.79 205.768 118.078 206.392C118.382 207 118.534 207.752 118.534 208.648V210.016C118.534 211.312 118.198 212.304 117.526 212.992C116.854 213.664 115.854 214 114.526 214H110.374V197.2H114.358ZM113.014 206.44V211.6H114.526C114.974 211.6 115.31 211.48 115.534 211.24C115.774 211 115.894 210.568 115.894 209.944V208.48C115.894 207.696 115.758 207.16 115.486 206.872C115.23 206.584 114.798 206.44 114.19 206.44H113.014ZM113.014 199.6V204.04H114.046C114.542 204.04 114.926 203.912 115.198 203.656C115.486 203.4 115.63 202.936 115.63 202.264V201.328C115.63 200.72 115.518 200.28 115.294 200.008C115.086 199.736 114.75 199.6 114.286 199.6H113.014ZM128.668 214H126.004L125.548 210.952H122.308L121.852 214H119.428L122.116 197.2H125.98L128.668 214ZM122.644 208.672H125.188L123.916 200.176L122.644 208.672ZM129.418 214C129.546 213.68 129.626 213.368 129.658 213.064C129.69 212.744 129.706 212.376 129.706 211.96V209.368C129.706 208.488 129.826 207.744 130.066 207.136C130.322 206.512 130.786 206.064 131.458 205.792C130.306 205.248 129.729 204.112 129.729 202.384V201.064C129.729 199.768 130.034 198.8 130.642 198.16C131.266 197.52 132.266 197.2 133.642 197.2H137.626V214H134.986V207.16H134.074C133.466 207.16 133.026 207.32 132.754 207.64C132.482 207.96 132.346 208.512 132.346 209.296V211.936C132.346 212.272 132.338 212.552 132.322 212.776C132.322 213 132.306 213.184 132.274 213.328C132.258 213.472 132.234 213.592 132.202 213.688C132.17 213.784 132.138 213.888 132.105 214H129.418ZM133.714 199.6C133.25 199.6 132.906 199.736 132.682 200.008C132.474 200.28 132.37 200.72 132.37 201.328V202.984C132.37 203.656 132.506 204.12 132.778 204.376C133.066 204.632 133.458 204.76 133.954 204.76H134.986V199.6H133.714ZM68.6 238H65.96V221.2H74.288V238H71.6V223.6H68.6V238ZM80.0902 221.2C81.4182 221.2 82.4022 221.552 83.0422 222.256C83.6982 222.96 84.0262 223.992 84.0262 225.352V227.536C84.0262 228.896 83.6982 229.928 83.0422 230.632C82.4022 231.336 81.4182 231.688 80.0902 231.688H78.8422V238H76.2022V221.2H80.0902ZM78.8422 223.6V229.288H80.0902C80.5062 229.288 80.8262 229.176 81.0502 228.952C81.2742 228.728 81.3862 228.312 81.3862 227.704V225.184C81.3862 224.576 81.2742 224.16 81.0502 223.936C80.8262 223.712 80.5062 223.6 80.0902 223.6H78.8422ZM87.6731 234.136C87.6731 234.744 87.7931 235.176 88.0331 235.432C88.2891 235.672 88.6251 235.792 89.0411 235.792C89.4571 235.792 89.7851 235.672 90.0251 235.432C90.2811 235.176 90.4091 234.744 90.4091 234.136V225.064C90.4091 224.456 90.2811 224.032 90.0251 223.792C89.7851 223.536 89.4571 223.408 89.0411 223.408C88.6251 223.408 88.2891 223.536 88.0331 223.792C87.7931 224.032 87.6731 224.456 87.6731 225.064V234.136ZM85.0331 225.232C85.0331 223.872 85.3771 222.832 86.0651 222.112C86.7531 221.376 87.7451 221.008 89.0411 221.008C90.3371 221.008 91.3291 221.376 92.0171 222.112C92.7051 222.832 93.0491 223.872 93.0491 225.232V233.968C93.0491 235.328 92.7051 236.376 92.0171 237.112C91.3291 237.832 90.3371 238.192 89.0411 238.192C87.7451 238.192 86.7531 237.832 86.0651 237.112C85.3771 236.376 85.0331 235.328 85.0331 233.968V225.232ZM100.357 233.128L102.157 221.2H105.829V238H103.333V225.952L101.509 238H99.0127L97.0447 226.12V238H94.7407V221.2H98.4127L100.357 233.128ZM107.749 238V221.2H110.389V227.512H111.637C112.965 227.512 113.949 227.864 114.589 228.568C115.245 229.272 115.573 230.304 115.573 231.664V233.848C115.573 235.208 115.245 236.24 114.589 236.944C113.949 237.648 112.965 238 111.637 238H107.749ZM111.637 235.6C112.053 235.6 112.373 235.488 112.597 235.264C112.821 235.04 112.933 234.624 112.933 234.016V231.496C112.933 230.888 112.821 230.472 112.597 230.248C112.373 230.024 112.053 229.912 111.637 229.912H110.389V235.6H111.637ZM117.085 238V221.2H119.725V238H117.085ZM121.648 238V221.2H124.288V235.6H126.568V221.2H129.208V235.6H131.488V221.2H134.128V238H121.648ZM135.294 235.624C135.598 235.624 135.846 235.608 136.038 235.576C136.246 235.544 136.414 235.472 136.542 235.36C136.67 235.232 136.758 235.056 136.806 234.832C136.87 234.592 136.91 234.28 136.926 233.896L137.358 221.2H144.822V238H142.134V223.6H139.83L139.542 233.752C139.494 235.288 139.166 236.384 138.558 237.04C137.966 237.696 137.014 238.024 135.702 238.024H135.294V235.624ZM149.483 228.28H153.107V230.68H149.483V235.6H154.043V238H146.843V221.2H154.043V223.6H149.483V228.28ZM158.319 238H155.679V221.2H158.319V228.4H161.319V221.2H164.007V238H161.319V230.8H158.319V238ZM168.561 238H165.921V221.2H168.561V228.4H171.561V221.2H174.249V238H171.561V230.8H168.561V238ZM178.587 234.136C178.587 234.744 178.707 235.176 178.947 235.432C179.203 235.672 179.539 235.792 179.955 235.792C180.371 235.792 180.699 235.672 180.939 235.432C181.195 235.176 181.323 234.744 181.323 234.136V225.064C181.323 224.456 181.195 224.032 180.939 223.792C180.699 223.536 180.371 223.408 179.955 223.408C179.539 223.408 179.203 223.536 178.947 223.792C178.707 224.032 178.587 224.456 178.587 225.064V234.136ZM175.947 225.232C175.947 223.872 176.291 222.832 176.979 222.112C177.667 221.376 178.659 221.008 179.955 221.008C181.251 221.008 182.243 221.376 182.931 222.112C183.619 222.832 183.963 223.872 183.963 225.232V233.968C183.963 235.328 183.619 236.376 182.931 237.112C182.243 237.832 181.251 238.192 179.955 238.192C178.659 238.192 177.667 237.832 176.979 237.112C176.291 236.376 175.947 235.328 175.947 233.968V225.232ZM193.335 231.736V233.968C193.335 235.328 192.999 236.376 192.327 237.112C191.671 237.832 190.695 238.192 189.399 238.192C188.103 238.192 187.119 237.832 186.447 237.112C185.791 236.376 185.463 235.328 185.463 233.968V225.232C185.463 223.872 185.791 222.832 186.447 222.112C187.119 221.376 188.103 221.008 189.399 221.008C190.695 221.008 191.671 221.376 192.327 222.112C192.999 222.832 193.335 223.872 193.335 225.232V226.864H190.839V225.064C190.839 224.456 190.711 224.032 190.455 223.792C190.215 223.536 189.887 223.408 189.471 223.408C189.055 223.408 188.719 223.536 188.463 223.792C188.223 224.032 188.103 224.456 188.103 225.064V234.136C188.103 234.744 188.223 235.168 188.463 235.408C188.719 235.648 189.055 235.768 189.471 235.768C189.887 235.768 190.215 235.648 190.455 235.408C190.711 235.168 190.839 234.744 190.839 234.136V231.736H193.335ZM194.169 221.2H202.329V223.6H199.569V238H196.929V223.6H194.169V221.2ZM203.491 238V221.2H206.131V227.512H207.379C208.707 227.512 209.691 227.864 210.331 228.568C210.987 229.272 211.315 230.304 211.315 231.664V233.848C211.315 235.208 210.987 236.24 210.331 236.944C209.691 237.648 208.707 238 207.379 238H203.491ZM207.379 235.6C207.795 235.6 208.115 235.488 208.339 235.264C208.563 235.04 208.675 234.624 208.675 234.016V231.496C208.675 230.888 208.563 230.472 208.339 230.248C208.115 230.024 207.795 229.912 207.379 229.912H206.131V235.6H207.379Z" fill="#2E3237"/>
    <defs>
<linearGradient id="paint0_linear" x1="215.25" y1="-83.5" x2="215.25" y2="486" gradientUnits="userSpaceOnUse">
<stop stop-color="white"/>
<stop offset="1" stop-color="white" stop-opacity="0"/>
</linearGradient>
<linearGradient id="paint1_linear" x1="-8.49999" y1="466" x2="118" y2="327.5" gradientUnits="userSpaceOnUse">
<stop stop-color="white"/>
<stop offset="1" stop-color="white" stop-opacity="0"/>
</linearGradient>
<linearGradient id="paint2_linear" x1="356.5" y1="-13.5" x2="343.727" y2="21.4547" gradientUnits="userSpaceOnUse">
<stop stop-color="white"/>
<stop offset="1" stop-color="white" stop-opacity="0"/>
</linearGradient>
</defs>
</svg>
