<svg width="768" height="1024" viewBox="0 0 768 1024" fill="none" xmlns="http://www.w3.org/2000/svg">
<path d="M139 -206L290 -62.5M139 -206L429.993 -236.259M139 -206L50.8736 -388.244M290 -62.5L171.712 229.242M290 -62.5L479 82.5M171.712 229.242L296.85 561.509M171.712 229.242L20.6301 119.551M296.85 561.509L135.383 727.677M296.85 561.509L495.663 658.544M135.383 727.677L183.862 814.049M135.383 727.677L-112.352 682.285M183.862 814.049L117.248 932.888M183.862 814.049L455.629 744.849L511.775 765.346M183.862 814.049L374.444 994.701M429.993 -236.259L473.313 -253.995M429.993 -236.259L396 -181M473.313 -253.995L547.373 -426.211M473.313 -253.995L652.5 -43L745.5 -11M473.313 -253.995L446.5 -20M396 -181L-30.2243 26.1357M396 -181L446.5 -20M479 82.5L419.088 379.645M479 82.5L745.5 -11M479 82.5L446.5 -20M419.088 379.645L311.397 361.235M419.088 379.645L599.348 338.329M419.088 379.645L576.16 546.451M311.397 361.235L309.344 477.217M311.397 361.235L247.646 346.605M309.344 477.217L576.16 546.451M309.344 477.217L127.619 458.524M247.646 346.605L745.5 -11M247.646 346.605L127.619 458.524M745.5 -11L779.608 297.014L599.348 338.329M446.5 -20L-30.2243 26.1357M117.248 932.888L-34.8655 909.692L-143.073 722.747M117.248 932.888L98.9097 980.071M98.9097 980.071L256.074 1169.88L374.444 994.701M98.9097 980.071L-210.079 1202.64L-400.308 903.222L-143.073 722.747M-112.352 682.285L-143.073 722.747M-112.352 682.285L-32.3751 147.617M-112.352 682.285L127.619 458.524M20.6301 119.551L-32.3751 147.617M20.6301 119.551L-30.2243 26.1357M-32.3751 147.617L-313.12 413.189L127.619 458.524M-32.3751 147.617L-333.698 -62.7503L-30.2243 26.1357M-32.3751 147.617L127.619 458.524M-30.2243 26.1357L-180.189 -485.599L50.8736 -388.244M-30.2243 26.1357L50.8736 -388.244M495.663 658.544L574.718 627.938M495.663 658.544L511.775 765.346M574.718 627.938L576.16 546.451M574.718 627.938L620.896 618.254L690.615 719.504M511.775 765.346L492.813 819.519M492.813 819.519L588.674 941.235M492.813 819.519L374.444 994.701M576.16 546.451L599.348 338.329M576.16 546.451L755.132 549.62M599.348 338.329L755.132 549.62M755.132 549.62L690.615 719.504M690.615 719.504L820.262 825.316L588.674 941.235M588.674 941.235L765.402 1099.39L374.444 994.701" stroke="#2E3237"/>
<path d="M139 -206L290 -62.5M139 -206L429.993 -236.259M139 -206L50.8736 -388.244M290 -62.5L171.712 229.242M290 -62.5L479 82.5M171.712 229.242L296.85 561.509M171.712 229.242L20.6301 119.551M296.85 561.509L135.383 727.677M296.85 561.509L495.663 658.544M135.383 727.677L183.862 814.049M135.383 727.677L-112.352 682.285M183.862 814.049L117.248 932.888M183.862 814.049L455.629 744.849L511.775 765.346M183.862 814.049L374.444 994.701M429.993 -236.259L473.313 -253.995M429.993 -236.259L396 -181M473.313 -253.995L547.373 -426.211M473.313 -253.995L652.5 -43L745.5 -11M473.313 -253.995L446.5 -20M396 -181L-30.2243 26.1357M396 -181L446.5 -20M479 82.5L419.088 379.645M479 82.5L745.5 -11M479 82.5L446.5 -20M419.088 379.645L311.397 361.235M419.088 379.645L599.348 338.329M419.088 379.645L576.16 546.451M311.397 361.235L309.344 477.217M311.397 361.235L247.646 346.605M309.344 477.217L576.16 546.451M309.344 477.217L127.619 458.524M247.646 346.605L745.5 -11M247.646 346.605L127.619 458.524M745.5 -11L779.608 297.014L599.348 338.329M446.5 -20L-30.2243 26.1357M117.248 932.888L-34.8655 909.692L-143.073 722.747M117.248 932.888L98.9097 980.071M98.9097 980.071L256.074 1169.88L374.444 994.701M98.9097 980.071L-210.079 1202.64L-400.308 903.222L-143.073 722.747M-112.352 682.285L-143.073 722.747M-112.352 682.285L-32.3751 147.617M-112.352 682.285L127.619 458.524M20.6301 119.551L-32.3751 147.617M20.6301 119.551L-30.2243 26.1357M-32.3751 147.617L-313.12 413.189L127.619 458.524M-32.3751 147.617L-333.698 -62.7503L-30.2243 26.1357M-32.3751 147.617L127.619 458.524M-30.2243 26.1357L-180.189 -485.599L50.8736 -388.244M-30.2243 26.1357L50.8736 -388.244M495.663 658.544L574.718 627.938M495.663 658.544L511.775 765.346M574.718 627.938L576.16 546.451M574.718 627.938L620.896 618.254L690.615 719.504M511.775 765.346L492.813 819.519M492.813 819.519L588.674 941.235M492.813 819.519L374.444 994.701M576.16 546.451L599.348 338.329M576.16 546.451L755.132 549.62M599.348 338.329L755.132 549.62M755.132 549.62L690.615 719.504M690.615 719.504L820.262 825.316L588.674 941.235M588.674 941.235L765.402 1099.39L374.444 994.701" stroke="url(#paint0_linear)"/>
<path d="M139 -206L290 -62.5M139 -206L429.993 -236.259M139 -206L50.8736 -388.244M290 -62.5L171.712 229.242M290 -62.5L479 82.5M171.712 229.242L296.85 561.509M171.712 229.242L20.6301 119.551M296.85 561.509L135.383 727.677M296.85 561.509L495.663 658.544M135.383 727.677L183.862 814.049M135.383 727.677L-112.352 682.285M183.862 814.049L117.248 932.888M183.862 814.049L455.629 744.849L511.775 765.346M183.862 814.049L374.444 994.701M429.993 -236.259L473.313 -253.995M429.993 -236.259L396 -181M473.313 -253.995L547.373 -426.211M473.313 -253.995L652.5 -43L745.5 -11M473.313 -253.995L446.5 -20M396 -181L-30.2243 26.1357M396 -181L446.5 -20M479 82.5L419.088 379.645M479 82.5L745.5 -11M479 82.5L446.5 -20M419.088 379.645L311.397 361.235M419.088 379.645L599.348 338.329M419.088 379.645L576.16 546.451M311.397 361.235L309.344 477.217M311.397 361.235L247.646 346.605M309.344 477.217L576.16 546.451M309.344 477.217L127.619 458.524M247.646 346.605L745.5 -11M247.646 346.605L127.619 458.524M745.5 -11L779.608 297.014L599.348 338.329M446.5 -20L-30.2243 26.1357M117.248 932.888L-34.8655 909.692L-143.073 722.747M117.248 932.888L98.9097 980.071M98.9097 980.071L256.074 1169.88L374.444 994.701M98.9097 980.071L-210.079 1202.64L-400.308 903.222L-143.073 722.747M-112.352 682.285L-143.073 722.747M-112.352 682.285L-32.3751 147.617M-112.352 682.285L127.619 458.524M20.6301 119.551L-32.3751 147.617M20.6301 119.551L-30.2243 26.1357M-32.3751 147.617L-313.12 413.189L127.619 458.524M-32.3751 147.617L-333.698 -62.7503L-30.2243 26.1357M-32.3751 147.617L127.619 458.524M-30.2243 26.1357L-180.189 -485.599L50.8736 -388.244M-30.2243 26.1357L50.8736 -388.244M495.663 658.544L574.718 627.938M495.663 658.544L511.775 765.346M574.718 627.938L576.16 546.451M574.718 627.938L620.896 618.254L690.615 719.504M511.775 765.346L492.813 819.519M492.813 819.519L588.674 941.235M492.813 819.519L374.444 994.701M576.16 546.451L599.348 338.329M576.16 546.451L755.132 549.62M599.348 338.329L755.132 549.62M755.132 549.62L690.615 719.504M690.615 719.504L820.262 825.316L588.674 941.235M588.674 941.235L765.402 1099.39L374.444 994.701" stroke="url(#paint1_linear)"/>
<path d="M604.25 343.916L169.31 223.699M604.25 343.916L141.794 732.792M604.25 343.916L686.598 720.434L498.11 661.588L141.794 732.792M604.25 343.916L951.807 89.5289L575.5 153M604.25 343.916L575.5 153M169.31 223.699L-74.556 439.916L141.794 732.792M169.31 223.699L-305.02 435.836L-209.329 906.102L141.794 732.792M169.31 223.699L428.5 -167L575.5 153" stroke="#6CCCE1" stroke-dasharray="10 10"/>
<circle cx="601" cy="341" r="10" fill="#CFAE6F"/>
<circle cx="478" cy="85" r="10" fill="#CFAE6F"/>
<circle cx="577" cy="150" r="10" fill="#CFAE6F"/>
<circle cx="596.998" cy="716" r="10" fill="#CFAE6F"/>
<circle cx="48.999" cy="771" r="10" fill="#CFAE6F"/>
<circle cx="35.999" cy="281" r="10" fill="#CFAE6F"/>
<circle cx="139.999" cy="726" r="10" fill="#CFAE6F"/>
<circle cx="712" cy="843" r="10" fill="#CFAE6F"/>
<circle cx="748" cy="874" r="5" fill="#CFAE6F"/>
<circle cx="483" cy="447" r="5" fill="#CFAE6F"/>
<circle cx="461.998" cy="811" r="5" fill="#CFAE6F"/>
<circle cx="759" cy="120" r="5" fill="#CFAE6F"/>
<circle cx="456" cy="198" r="5" fill="#CFAE6F"/>
<circle cx="562" cy="120" r="5" fill="#CFAE6F"/>
<circle cx="534" cy="63" r="5" fill="#CFAE6F"/>
<circle cx="171.999" cy="776" r="5" fill="#CFAE6F"/>
<circle cx="224" cy="369" r="5" fill="#CFAE6F"/>
<circle cx="57" cy="323" r="5" fill="#CFAE6F"/>
<circle cx="750" cy="554" r="10" fill="#CFAE6F"/>
<circle cx="351" cy="272" r="10" fill="#CFAE6F"/>
<circle cx="295" cy="564" r="10" fill="#CFAE6F"/>
<circle cx="311" cy="361" r="5" fill="#CFAE6F"/>
<circle cx="767" cy="292" r="5" fill="#CFAE6F"/>
<circle cx="435" cy="298" r="5" fill="#CFAE6F"/>
<circle cx="413" cy="503" r="5" fill="#CFAE6F"/>
<circle cx="16" cy="564" r="5" fill="#CFAE6F"/>
<circle cx="620" cy="619" r="5" fill="#CFAE6F"/>
<circle id="svg_digital_puls" class="pulsation" cx="170" cy="223" r="40" fill="#C08718" fill-opacity="0.4"/>
<circle id="svg_digital"  class="clickForShowProject" cx="169.999" cy="223" r="25" fill="#C08718"/>
<path id="svg_digital_text" class="point_text" d="M205.959 202.2H208.599V216.6H211.599V202.2H214.287V216.648H215.439V221.256H212.871V219H205.959V202.2ZM219.593 219H216.881V202.2H219.233V212.832L220.193 209.136L222.353 202.2H225.257V219H222.881V207.168L221.801 211.296L219.593 219ZM231.827 217.104H230.843C229.515 217.104 228.523 216.752 227.867 216.048C227.227 215.344 226.907 214.312 226.907 212.952V208.368C226.907 207.008 227.227 205.976 227.867 205.272C228.523 204.568 229.515 204.216 230.843 204.216H231.827V202.2H234.419V204.216H235.403C236.731 204.216 237.715 204.568 238.355 205.272C239.011 205.976 239.339 207.008 239.339 208.368V212.952C239.339 214.312 239.011 215.344 238.355 216.048C237.715 216.752 236.731 217.104 235.403 217.104H234.419V219H231.827V217.104ZM234.419 206.544V214.8H235.403C235.819 214.8 236.139 214.672 236.363 214.416C236.603 214.16 236.723 213.728 236.723 213.12V208.2C236.723 207.592 236.603 207.168 236.363 206.928C236.139 206.672 235.819 206.544 235.403 206.544H234.419ZM231.827 206.544H230.843C230.427 206.544 230.099 206.672 229.859 206.928C229.635 207.168 229.523 207.592 229.523 208.2V213.12C229.523 213.728 229.635 214.16 229.859 214.416C230.099 214.672 230.427 214.8 230.843 214.8H231.827V206.544ZM245.003 202.2C246.331 202.2 247.315 202.552 247.955 203.256C248.611 203.96 248.939 204.992 248.939 206.352V208.536C248.939 209.896 248.611 210.928 247.955 211.632C247.315 212.336 246.331 212.688 245.003 212.688H243.755V219H241.115V202.2H245.003ZM243.755 204.6V210.288H245.003C245.419 210.288 245.739 210.176 245.963 209.952C246.187 209.728 246.299 209.312 246.299 208.704V206.184C246.299 205.576 246.187 205.16 245.963 204.936C245.739 204.712 245.419 204.6 245.003 204.6H243.755ZM252.586 215.136C252.586 215.744 252.706 216.176 252.946 216.432C253.202 216.672 253.538 216.792 253.954 216.792C254.37 216.792 254.698 216.672 254.938 216.432C255.194 216.176 255.322 215.744 255.322 215.136V206.064C255.322 205.456 255.194 205.032 254.938 204.792C254.698 204.536 254.37 204.408 253.954 204.408C253.538 204.408 253.202 204.536 252.946 204.792C252.706 205.032 252.586 205.456 252.586 206.064V215.136ZM249.946 206.232C249.946 204.872 250.29 203.832 250.978 203.112C251.666 202.376 252.658 202.008 253.954 202.008C255.25 202.008 256.242 202.376 256.93 203.112C257.618 203.832 257.962 204.872 257.962 206.232V214.968C257.962 216.328 257.618 217.376 256.93 218.112C256.242 218.832 255.25 219.192 253.954 219.192C252.658 219.192 251.666 218.832 250.978 218.112C250.29 217.376 249.946 216.328 249.946 214.968V206.232ZM263.662 202.2C265.038 202.2 266.03 202.52 266.638 203.16C267.262 203.8 267.574 204.768 267.574 206.064V206.664C267.574 207.528 267.438 208.24 267.166 208.8C266.894 209.36 266.462 209.776 265.87 210.048C266.59 210.32 267.094 210.768 267.382 211.392C267.686 212 267.838 212.752 267.838 213.648V215.016C267.838 216.312 267.502 217.304 266.83 217.992C266.158 218.664 265.158 219 263.83 219H259.678V202.2H263.662ZM262.318 211.44V216.6H263.83C264.278 216.6 264.614 216.48 264.838 216.24C265.078 216 265.198 215.568 265.198 214.944V213.48C265.198 212.696 265.062 212.16 264.79 211.872C264.534 211.584 264.102 211.44 263.494 211.44H262.318ZM262.318 204.6V209.04H263.35C263.846 209.04 264.23 208.912 264.502 208.656C264.79 208.4 264.934 207.936 264.934 207.264V206.328C264.934 205.72 264.822 205.28 264.598 205.008C264.39 204.736 264.054 204.6 263.59 204.6H262.318ZM269.428 219V202.2H272.068V208.512H273.316C274.644 208.512 275.628 208.864 276.268 209.568C276.924 210.272 277.252 211.304 277.252 212.664V214.848C277.252 216.208 276.924 217.24 276.268 217.944C275.628 218.648 274.644 219 273.316 219H269.428ZM273.316 216.6C273.732 216.6 274.052 216.488 274.276 216.264C274.5 216.04 274.612 215.624 274.612 215.016V212.496C274.612 211.888 274.5 211.472 274.276 211.248C274.052 211.024 273.732 210.912 273.316 210.912H272.068V216.6H273.316ZM278.764 219V202.2H281.404V219H278.764ZM285.966 209.28H289.59V211.68H285.966V216.6H290.526V219H283.326V202.2H290.526V204.6H285.966V209.28ZM205.191 232.2H213.351V234.6H210.591V249H207.951V234.6H205.191V232.2ZM217.154 239.28H220.778V241.68H217.154V246.6H221.714V249H214.514V232.2H221.714V234.6H217.154V239.28ZM232.158 232.2L229.398 240.36L232.35 249H229.566L227.406 242.352L225.222 249H222.75L225.702 240.36L222.942 232.2H225.678L227.67 238.392L229.71 232.2H232.158ZM236.302 249H233.662V232.2H236.302V239.4H239.302V232.2H241.99V249H239.302V241.8H236.302V249ZM246.328 245.136C246.328 245.744 246.448 246.176 246.688 246.432C246.944 246.672 247.28 246.792 247.696 246.792C248.112 246.792 248.44 246.672 248.68 246.432C248.936 246.176 249.064 245.744 249.064 245.136V236.064C249.064 235.456 248.936 235.032 248.68 234.792C248.44 234.536 248.112 234.408 247.696 234.408C247.28 234.408 246.944 234.536 246.688 234.792C246.448 235.032 246.328 235.456 246.328 236.064V245.136ZM243.688 236.232C243.688 234.872 244.032 233.832 244.72 233.112C245.408 232.376 246.4 232.008 247.696 232.008C248.992 232.008 249.984 232.376 250.672 233.112C251.36 233.832 251.704 234.872 251.704 236.232V244.968C251.704 246.328 251.36 247.376 250.672 248.112C249.984 248.832 248.992 249.192 247.696 249.192C246.4 249.192 245.408 248.832 244.72 248.112C244.032 247.376 243.688 246.328 243.688 244.968V236.232ZM252.676 246.624C252.98 246.624 253.228 246.608 253.42 246.576C253.628 246.544 253.796 246.472 253.924 246.36C254.052 246.232 254.14 246.056 254.188 245.832C254.252 245.592 254.292 245.28 254.308 244.896L254.74 232.2H262.204V249H259.516V234.6H257.212L256.924 244.752C256.876 246.288 256.548 247.384 255.94 248.04C255.348 248.696 254.396 249.024 253.084 249.024H252.676V246.624ZM266.649 245.136C266.649 245.744 266.769 246.176 267.009 246.432C267.265 246.672 267.601 246.792 268.017 246.792C268.433 246.792 268.761 246.672 269.001 246.432C269.257 246.176 269.385 245.744 269.385 245.136V236.064C269.385 235.456 269.257 235.032 269.001 234.792C268.761 234.536 268.433 234.408 268.017 234.408C267.601 234.408 267.265 234.536 267.009 234.792C266.769 235.032 266.649 235.456 266.649 236.064V245.136ZM264.009 236.232C264.009 234.872 264.353 233.832 265.041 233.112C265.729 232.376 266.721 232.008 268.017 232.008C269.313 232.008 270.305 232.376 270.993 233.112C271.681 233.832 272.025 234.872 272.025 236.232V244.968C272.025 246.328 271.681 247.376 270.993 248.112C270.305 248.832 269.313 249.192 268.017 249.192C266.721 249.192 265.729 248.832 265.041 248.112C264.353 247.376 264.009 246.328 264.009 244.968V236.232ZM273.764 249V232.2H280.724V234.6H276.404V249H273.764ZM285.218 249H282.506V232.2H284.858V242.832L285.818 239.136L287.978 232.2H290.882V249H288.506V237.168L287.426 241.296L285.218 249ZM295.46 249H292.748V232.2H295.1V242.832L296.06 239.136L298.22 232.2H301.124V249H298.748V237.168L297.668 241.296L295.46 249Z" fill="#2E3237"/>
    <circle id="svg_energy_puls" cx="123.999" cy="457.001" class="pulsation" r="40" fill="#C08718" fill-opacity="0.4"/>
<circle id="svg_energy"  class="clickForShowProject" cx="123.999" cy="457.001" r="25" fill="#C08718"/>
<path id="svg_energy_text" class="point_text" d="M162.119 441.977V444.137C162.119 444.745 162.239 445.169 162.479 445.409C162.735 445.649 163.071 445.769 163.487 445.769C163.903 445.769 164.231 445.649 164.471 445.409C164.727 445.169 164.855 444.745 164.855 444.137V440.513H162.431V438.113H164.855V435.065C164.855 434.457 164.727 434.033 164.471 433.793C164.231 433.537 163.903 433.409 163.487 433.409C163.071 433.409 162.735 433.537 162.479 433.793C162.239 434.033 162.119 434.457 162.119 435.065V436.649H159.671V435.233C159.671 433.873 159.991 432.833 160.631 432.113C161.287 431.377 162.263 431.009 163.559 431.009C164.855 431.009 165.831 431.377 166.487 432.113C167.159 432.833 167.495 433.873 167.495 435.233V443.969C167.495 445.329 167.159 446.377 166.487 447.113C165.831 447.833 164.855 448.193 163.559 448.193C162.263 448.193 161.279 447.833 160.607 447.113C159.951 446.377 159.623 445.329 159.623 443.969V441.977H162.119ZM171.857 448.001H169.217V431.201H171.857V438.401H174.857V431.201H177.545V448.001H174.857V440.801H171.857V448.001ZM182.099 438.281H185.723V440.681H182.099V445.601H186.659V448.001H179.459V431.201H186.659V433.601H182.099V438.281ZM192.183 431.201C193.511 431.201 194.495 431.553 195.135 432.257C195.791 432.961 196.119 433.993 196.119 435.353V437.537C196.119 438.897 195.791 439.929 195.135 440.633C194.495 441.337 193.511 441.689 192.183 441.689H190.935V448.001H188.295V431.201H192.183ZM190.935 433.601V439.289H192.183C192.599 439.289 192.919 439.177 193.143 438.953C193.367 438.729 193.479 438.313 193.479 437.705V435.185C193.479 434.577 193.367 434.161 193.143 433.937C192.919 433.713 192.599 433.601 192.183 433.601H190.935ZM197.366 448.001V431.201H204.326V433.601H200.006V448.001H197.366ZM208.747 438.281H212.371V440.681H208.747V445.601H213.307V448.001H206.107V431.201H213.307V433.601H208.747V438.281ZM214.175 431.201H222.335V433.601H219.575V448.001H216.935V433.601H214.175V431.201ZM226.21 448.001H223.498V431.201H225.85V441.833L226.81 438.137L228.97 431.201H231.874V448.001H229.498V436.169L228.418 440.297L226.21 448.001ZM237.196 441.305L236.38 442.841V448.001H233.74V431.201H236.38V438.521L239.836 431.201H242.476L238.804 438.689L242.476 448.001H239.764L237.196 441.305ZM252.222 448.001H249.558L249.102 444.953H245.862L245.406 448.001H242.982L245.67 431.201H249.534L252.222 448.001ZM246.198 442.673H248.742L247.47 434.177L246.198 442.673ZM162.671 478.001H159.959V461.201H162.311V471.833L163.271 468.137L165.431 461.201H168.335V478.001H165.959V466.169L164.879 470.297L162.671 478.001ZM176.088 471.977V474.137C176.088 474.745 176.208 475.169 176.448 475.409C176.704 475.649 177.04 475.769 177.456 475.769C177.872 475.769 178.2 475.649 178.44 475.409C178.696 475.169 178.824 474.745 178.824 474.137V470.513H176.4V468.113H178.824V465.065C178.824 464.457 178.696 464.033 178.44 463.793C178.2 463.537 177.872 463.409 177.456 463.409C177.04 463.409 176.704 463.537 176.448 463.793C176.208 464.033 176.088 464.457 176.088 465.065V466.649H173.64V465.233C173.64 463.873 173.96 462.833 174.6 462.113C175.256 461.377 176.232 461.009 177.528 461.009C178.824 461.009 179.8 461.377 180.456 462.113C181.128 462.833 181.464 463.873 181.464 465.233V473.969C181.464 475.329 181.128 476.377 180.456 477.113C179.8 477.833 178.824 478.193 177.528 478.193C176.232 478.193 175.248 477.833 174.576 477.113C173.92 476.377 173.592 475.329 173.592 473.969V471.977H176.088ZM185.826 478.001H183.186V461.201H185.826V468.401H188.826V461.201H191.514V478.001H188.826V470.801H185.826V478.001ZM196.068 468.281H199.692V470.681H196.068V475.601H200.628V478.001H193.428V461.201H200.628V463.601H196.068V468.281ZM206.152 461.201C207.48 461.201 208.464 461.553 209.104 462.257C209.76 462.961 210.088 463.993 210.088 465.353V467.537C210.088 468.897 209.76 469.929 209.104 470.633C208.464 471.337 207.48 471.689 206.152 471.689H204.904V478.001H202.264V461.201H206.152ZM204.904 463.601V469.289H206.152C206.568 469.289 206.888 469.177 207.112 468.953C207.336 468.729 207.448 468.313 207.448 467.705V465.185C207.448 464.577 207.336 464.161 207.112 463.937C206.888 463.713 206.568 463.601 206.152 463.601H204.904ZM211.335 478.001V461.201H218.295V463.601H213.975V478.001H211.335ZM222.5 474.137C222.5 474.745 222.62 475.177 222.86 475.433C223.116 475.673 223.452 475.793 223.868 475.793C224.284 475.793 224.612 475.673 224.852 475.433C225.108 475.177 225.236 474.745 225.236 474.137V465.065C225.236 464.457 225.108 464.033 224.852 463.793C224.612 463.537 224.284 463.409 223.868 463.409C223.452 463.409 223.116 463.537 222.86 463.793C222.62 464.033 222.5 464.457 222.5 465.065V474.137ZM219.86 465.233C219.86 463.873 220.204 462.833 220.892 462.113C221.58 461.377 222.572 461.009 223.868 461.009C225.164 461.009 226.156 461.377 226.844 462.113C227.532 462.833 227.876 463.873 227.876 465.233V473.969C227.876 475.329 227.532 476.377 226.844 477.113C226.156 477.833 225.164 478.193 223.868 478.193C222.572 478.193 221.58 477.833 220.892 477.113C220.204 476.377 219.86 475.329 219.86 473.969V465.233ZM237.248 471.737V473.969C237.248 475.329 236.912 476.377 236.24 477.113C235.584 477.833 234.608 478.193 233.312 478.193C232.016 478.193 231.032 477.833 230.36 477.113C229.704 476.377 229.376 475.329 229.376 473.969V465.233C229.376 463.873 229.704 462.833 230.36 462.113C231.032 461.377 232.016 461.009 233.312 461.009C234.608 461.009 235.584 461.377 236.24 462.113C236.912 462.833 237.248 463.873 237.248 465.233V466.865H234.752V465.065C234.752 464.457 234.624 464.033 234.368 463.793C234.128 463.537 233.8 463.409 233.384 463.409C232.968 463.409 232.632 463.537 232.376 463.793C232.136 464.033 232.016 464.457 232.016 465.065V474.137C232.016 474.745 232.136 475.169 232.376 475.409C232.632 475.649 232.968 475.769 233.384 475.769C233.8 475.769 234.128 475.649 234.368 475.409C234.624 475.169 234.752 474.745 234.752 474.137V471.737H237.248ZM238.874 478.001V461.201H246.266V463.601H241.514V467.897H243.05C244.378 467.897 245.37 468.249 246.026 468.953C246.698 469.657 247.034 470.689 247.034 472.049V473.849C247.034 475.209 246.698 476.241 246.026 476.945C245.37 477.649 244.378 478.001 243.05 478.001H238.874ZM243.05 475.601C243.466 475.601 243.794 475.489 244.034 475.265C244.274 475.041 244.394 474.625 244.394 474.017V471.881C244.394 471.273 244.274 470.857 244.034 470.633C243.794 470.409 243.466 470.297 243.05 470.297H241.514V475.601H243.05ZM251.451 468.281H255.075V470.681H251.451V475.601H256.011V478.001H248.811V461.201H256.011V463.601H251.451V468.281ZM261.535 461.201C262.863 461.201 263.847 461.553 264.487 462.257C265.143 462.961 265.471 463.993 265.471 465.353V467.537C265.471 468.897 265.143 469.929 264.487 470.633C263.847 471.337 262.863 471.689 261.535 471.689H260.287V478.001H257.647V461.201H261.535ZM260.287 463.601V469.289H261.535C261.951 469.289 262.271 469.177 262.495 468.953C262.719 468.729 262.831 468.313 262.831 467.705V465.185C262.831 464.577 262.719 464.161 262.495 463.937C262.271 463.713 261.951 463.601 261.535 463.601H260.287ZM269.333 468.281H272.957V470.681H269.333V475.601H273.893V478.001H266.693V461.201H273.893V463.601H269.333V468.281ZM283.137 467.993L286.257 461.201H288.897L285.657 468.017L288.897 478.001H286.185L283.785 470.561L283.137 471.833V478.001H280.521V471.833L279.873 470.537L277.473 478.001H274.761L278.025 468.089L274.761 461.201H277.401L280.521 467.993V461.201H283.137V467.993ZM292.654 468.281H296.278V470.681H292.654V475.601H297.214V478.001H290.014V461.201H297.214V463.601H292.654V468.281ZM301.49 478.001H298.85V461.201H301.49V468.401H304.49V461.201H307.178V478.001H304.49V470.801H301.49V478.001ZM311.804 478.001H309.092V461.201H311.444V471.833L312.404 468.137L314.564 461.201H317.468V478.001H315.092V466.169L314.012 470.297L311.804 478.001ZM321.974 468.281H325.598V470.681H321.974V475.601H326.534V478.001H319.334V461.201H326.534V463.601H321.974V468.281Z" fill="#2E3237"/>
    <circle id="svg_food_puls" cx="418" cy="379" class="pulsation" r="40" fill="#C08718" fill-opacity="0.4"/>
<circle id="svg_food" class="clickForShowProject" cx="418" cy="379" r="25" fill="#C08718"/>
<path id="svg_food_text" class="point_text" d="M456.6 370H453.96V353.2H462.288V370H459.6V355.6H456.6V370ZM466.914 370H464.202V353.2H466.554V363.832L467.514 360.136L469.674 353.2H472.578V370H470.202V358.168L469.122 362.296L466.914 370ZM486.924 367.648H488.1V372.256H485.532V370H474.444V353.2H477.084V367.6H479.364V353.2H482.004V367.6H484.284V353.2H486.924V367.648ZM492.178 360.28H495.802V362.68H492.178V367.6H496.738V370H489.538V353.2H496.738V355.6H492.178V360.28ZM502.358 353.2C503.734 353.2 504.726 353.52 505.334 354.16C505.958 354.8 506.27 355.768 506.27 357.064V357.664C506.27 358.528 506.134 359.24 505.862 359.8C505.59 360.36 505.158 360.776 504.566 361.048C505.286 361.32 505.79 361.768 506.078 362.392C506.382 363 506.534 363.752 506.534 364.648V366.016C506.534 367.312 506.198 368.304 505.526 368.992C504.854 369.664 503.854 370 502.526 370H498.374V353.2H502.358ZM501.014 362.44V367.6H502.526C502.974 367.6 503.31 367.48 503.534 367.24C503.774 367 503.894 366.568 503.894 365.944V364.48C503.894 363.696 503.758 363.16 503.486 362.872C503.23 362.584 502.798 362.44 502.19 362.44H501.014ZM501.014 355.6V360.04H502.046C502.542 360.04 502.926 359.912 503.198 359.656C503.486 359.4 503.63 358.936 503.63 358.264V357.328C503.63 356.72 503.518 356.28 503.294 356.008C503.086 355.736 502.75 355.6 502.286 355.6H501.014ZM516.668 370H514.004L513.548 366.952H510.308L509.852 370H507.428L510.116 353.2H513.98L516.668 370ZM510.644 364.672H513.188L511.916 356.176L510.644 364.672ZM517.418 370C517.546 369.68 517.626 369.368 517.658 369.064C517.69 368.744 517.706 368.376 517.706 367.96V365.368C517.706 364.488 517.826 363.744 518.066 363.136C518.322 362.512 518.786 362.064 519.458 361.792C518.306 361.248 517.729 360.112 517.729 358.384V357.064C517.729 355.768 518.034 354.8 518.642 354.16C519.266 353.52 520.266 353.2 521.642 353.2H525.626V370H522.986V363.16H522.074C521.466 363.16 521.026 363.32 520.754 363.64C520.482 363.96 520.346 364.512 520.346 365.296V367.936C520.346 368.272 520.338 368.552 520.322 368.776C520.322 369 520.306 369.184 520.274 369.328C520.258 369.472 520.234 369.592 520.202 369.688C520.17 369.784 520.138 369.888 520.105 370H517.418ZM521.714 355.6C521.25 355.6 520.906 355.736 520.682 356.008C520.474 356.28 520.37 356.72 520.37 357.328V358.984C520.37 359.656 520.506 360.12 520.778 360.376C521.066 360.632 521.458 360.76 521.954 360.76H522.986V355.6H521.714ZM456.6 400H453.96V383.2H462.288V400H459.6V385.6H456.6V400ZM468.09 383.2C469.418 383.2 470.402 383.552 471.042 384.256C471.698 384.96 472.026 385.992 472.026 387.352V389.536C472.026 390.896 471.698 391.928 471.042 392.632C470.402 393.336 469.418 393.688 468.09 393.688H466.842V400H464.202V383.2H468.09ZM466.842 385.6V391.288H468.09C468.506 391.288 468.826 391.176 469.05 390.952C469.274 390.728 469.386 390.312 469.386 389.704V387.184C469.386 386.576 469.274 386.16 469.05 385.936C468.826 385.712 468.506 385.6 468.09 385.6H466.842ZM475.673 396.136C475.673 396.744 475.793 397.176 476.033 397.432C476.289 397.672 476.625 397.792 477.041 397.792C477.457 397.792 477.785 397.672 478.025 397.432C478.281 397.176 478.409 396.744 478.409 396.136V387.064C478.409 386.456 478.281 386.032 478.025 385.792C477.785 385.536 477.457 385.408 477.041 385.408C476.625 385.408 476.289 385.536 476.033 385.792C475.793 386.032 475.673 386.456 475.673 387.064V396.136ZM473.033 387.232C473.033 385.872 473.377 384.832 474.065 384.112C474.753 383.376 475.745 383.008 477.041 383.008C478.337 383.008 479.329 383.376 480.017 384.112C480.705 384.832 481.049 385.872 481.049 387.232V395.968C481.049 397.328 480.705 398.376 480.017 399.112C479.329 399.832 478.337 400.192 477.041 400.192C475.745 400.192 474.753 399.832 474.065 399.112C473.377 398.376 473.033 397.328 473.033 395.968V387.232ZM488.357 395.128L490.157 383.2H493.829V400H491.333V387.952L489.509 400H487.013L485.045 388.12V400H482.741V383.2H486.413L488.357 395.128ZM495.749 400V383.2H498.389V389.512H499.637C500.965 389.512 501.949 389.864 502.589 390.568C503.245 391.272 503.573 392.304 503.573 393.664V395.848C503.573 397.208 503.245 398.24 502.589 398.944C501.949 399.648 500.965 400 499.637 400H495.749ZM499.637 397.6C500.053 397.6 500.373 397.488 500.597 397.264C500.821 397.04 500.933 396.624 500.933 396.016V393.496C500.933 392.888 500.821 392.472 500.597 392.248C500.373 392.024 500.053 391.912 499.637 391.912H498.389V397.6H499.637ZM505.085 400V383.2H507.725V400H505.085ZM509.648 400V383.2H512.288V397.6H514.568V383.2H517.208V397.6H519.488V383.2H522.128V400H509.648ZM523.294 397.624C523.598 397.624 523.846 397.608 524.038 397.576C524.246 397.544 524.414 397.472 524.542 397.36C524.67 397.232 524.758 397.056 524.806 396.832C524.87 396.592 524.91 396.28 524.926 395.896L525.358 383.2H532.822V400H530.134V385.6H527.83L527.542 395.752C527.494 397.288 527.166 398.384 526.558 399.04C525.966 399.696 525.014 400.024 523.702 400.024H523.294V397.624ZM537.483 390.28H541.107V392.68H537.483V397.6H542.043V400H534.843V383.2H542.043V385.6H537.483V390.28ZM546.319 400H543.679V383.2H546.319V390.4H549.319V383.2H552.007V400H549.319V392.8H546.319V400ZM556.561 400H553.921V383.2H556.561V390.4H559.561V383.2H562.249V400H559.561V392.8H556.561V400ZM566.587 396.136C566.587 396.744 566.707 397.176 566.947 397.432C567.203 397.672 567.539 397.792 567.955 397.792C568.371 397.792 568.699 397.672 568.939 397.432C569.195 397.176 569.323 396.744 569.323 396.136V387.064C569.323 386.456 569.195 386.032 568.939 385.792C568.699 385.536 568.371 385.408 567.955 385.408C567.539 385.408 567.203 385.536 566.947 385.792C566.707 386.032 566.587 386.456 566.587 387.064V396.136ZM563.947 387.232C563.947 385.872 564.291 384.832 564.979 384.112C565.667 383.376 566.659 383.008 567.955 383.008C569.251 383.008 570.243 383.376 570.931 384.112C571.619 384.832 571.963 385.872 571.963 387.232V395.968C571.963 397.328 571.619 398.376 570.931 399.112C570.243 399.832 569.251 400.192 567.955 400.192C566.659 400.192 565.667 399.832 564.979 399.112C564.291 398.376 563.947 397.328 563.947 395.968V387.232ZM581.335 393.736V395.968C581.335 397.328 580.999 398.376 580.327 399.112C579.671 399.832 578.695 400.192 577.399 400.192C576.103 400.192 575.119 399.832 574.447 399.112C573.791 398.376 573.463 397.328 573.463 395.968V387.232C573.463 385.872 573.791 384.832 574.447 384.112C575.119 383.376 576.103 383.008 577.399 383.008C578.695 383.008 579.671 383.376 580.327 384.112C580.999 384.832 581.335 385.872 581.335 387.232V388.864H578.839V387.064C578.839 386.456 578.711 386.032 578.455 385.792C578.215 385.536 577.887 385.408 577.471 385.408C577.055 385.408 576.719 385.536 576.463 385.792C576.223 386.032 576.103 386.456 576.103 387.064V396.136C576.103 396.744 576.223 397.168 576.463 397.408C576.719 397.648 577.055 397.768 577.471 397.768C577.887 397.768 578.215 397.648 578.455 397.408C578.711 397.168 578.839 396.744 578.839 396.136V393.736H581.335ZM582.169 383.2H590.329V385.6H587.569V400H584.929V385.6H582.169V383.2ZM591.491 400V383.2H594.131V389.512H595.379C596.707 389.512 597.691 389.864 598.331 390.568C598.987 391.272 599.315 392.304 599.315 393.664V395.848C599.315 397.208 598.987 398.24 598.331 398.944C597.691 399.648 596.707 400 595.379 400H591.491ZM595.379 397.6C595.795 397.6 596.115 397.488 596.339 397.264C596.563 397.04 596.675 396.624 596.675 396.016V393.496C596.675 392.888 596.563 392.472 596.339 392.248C596.115 392.024 595.795 391.912 595.379 391.912H594.131V397.6H595.379Z" fill="#2E3237"/>

 
 <defs>
<linearGradient id="paint0_linear" x1="848.203" y1="376.99" x2="-390.603" y2="355.058" gradientUnits="userSpaceOnUse">
<stop stop-color="white"/>
<stop offset="1" stop-color="white" stop-opacity="0"/>
</linearGradient>
<linearGradient id="paint1_linear" x1="-231.068" y1="-40.9301" x2="-52.3632" y2="203.272" gradientUnits="userSpaceOnUse">
<stop stop-color="white"/>
<stop offset="1" stop-color="white" stop-opacity="0"/>
</linearGradient>
</defs>
</svg>
