<svg width="1374" height="900" viewBox="0 0 1374 900" fill="none" xmlns="http://www.w3.org/2000/svg">
<path d="M187.5 463.5L522.5 405.5M187.5 463.5L239.5 314.5M187.5 463.5L94.25 696.25M522.5 405.5L709.5 564.5M522.5 405.5L494.5 271.5M709.5 564.5L1039.5 433.5M709.5 564.5L602.5 717.5M1039.5 433.5L1208.5 592M1039.5 433.5L1133 233M1208.5 592L1294 542M1208.5 592L1167.5 840.5M1294 542L1414 606.5M1294 542L1220 271.5L1239.5 215M1294 542L1471.25 348.25M239.5 314.5L221 271.5M239.5 314.5L298 324M221 271.5L47.5 200.5M221 271.5L494.5 -114.5L543.5 200.5M221 271.5L447 245.5M298 324L510 770M298 324L447 245.5M494.5 271.5L855.5 314.5M494.5 271.5L543.5 200.5M494.5 271.5L447 245.5M855.5 314.5L839 422.5M855.5 314.5L811 135M855.5 314.5L1019.5 154.5M839 422.5H955M839 422.5L825.5 486.5M955 422.5L1019.5 154.5M955 422.5L939.527 604.528M825.5 486.5L543.5 200.5M825.5 486.5L939.527 604.528M543.5 200.5L766.5 -44.5L811 135M447 245.5L510 770M1414 606.5L1393.5 759L1208.5 870.5M1414 606.5L1461.5 624M1461.5 624L1648.5 463.5L1471.25 348.25M1461.5 624L1689.5 929L1393.5 1124.5L1208.5 870.5M1167.5 840.5L1208.5 870.5M1167.5 840.5L631.5 770M1167.5 840.5L939.527 604.528M602.5 717.5L631.5 770M602.5 717.5L510 770M631.5 770L902 1046L939.527 604.528M631.5 770L426.5 1075L510 770M631.5 770L939.527 604.528M510 770L1 929L94.25 696.25M510 770L94.25 696.25M1133 233L1101 154.5M1133 233L1239.5 215M1101 154.5H1019.5M1101 154.5L1090.5 108.5L1190.5 37M1239.5 215L1294 233M1294 233L1414 135M1294 233L1471.25 348.25M1019.5 154.5L811 135M1019.5 154.5V-24.5M811 135L1019.5 -24.5M1019.5 -24.5L1190.5 37M1190.5 37L1294 -94.5L1414 135M1414 135L1569 -44.5L1471.25 348.25" stroke="#2E3237"/>
<path d="M187.5 463.5L522.5 405.5M187.5 463.5L239.5 314.5M187.5 463.5L94.25 696.25M522.5 405.5L709.5 564.5M522.5 405.5L494.5 271.5M709.5 564.5L1039.5 433.5M709.5 564.5L602.5 717.5M1039.5 433.5L1208.5 592M1039.5 433.5L1133 233M1208.5 592L1294 542M1208.5 592L1167.5 840.5M1294 542L1414 606.5M1294 542L1220 271.5L1239.5 215M1294 542L1471.25 348.25M239.5 314.5L221 271.5M239.5 314.5L298 324M221 271.5L47.5 200.5M221 271.5L494.5 -114.5L543.5 200.5M221 271.5L447 245.5M298 324L510 770M298 324L447 245.5M494.5 271.5L855.5 314.5M494.5 271.5L543.5 200.5M494.5 271.5L447 245.5M855.5 314.5L839 422.5M855.5 314.5L811 135M855.5 314.5L1019.5 154.5M839 422.5H955M839 422.5L825.5 486.5M955 422.5L1019.5 154.5M955 422.5L939.527 604.528M825.5 486.5L543.5 200.5M825.5 486.5L939.527 604.528M543.5 200.5L766.5 -44.5L811 135M447 245.5L510 770M1414 606.5L1393.5 759L1208.5 870.5M1414 606.5L1461.5 624M1461.5 624L1648.5 463.5L1471.25 348.25M1461.5 624L1689.5 929L1393.5 1124.5L1208.5 870.5M1167.5 840.5L1208.5 870.5M1167.5 840.5L631.5 770M1167.5 840.5L939.527 604.528M602.5 717.5L631.5 770M602.5 717.5L510 770M631.5 770L902 1046L939.527 604.528M631.5 770L426.5 1075L510 770M631.5 770L939.527 604.528M510 770L1 929L94.25 696.25M510 770L94.25 696.25M1133 233L1101 154.5M1133 233L1239.5 215M1101 154.5H1019.5M1101 154.5L1090.5 108.5L1190.5 37M1239.5 215L1294 233M1294 233L1414 135M1294 233L1471.25 348.25M1019.5 154.5L811 135M1019.5 154.5V-24.5M811 135L1019.5 -24.5M1019.5 -24.5L1190.5 37M1190.5 37L1294 -94.5L1414 135M1414 135L1569 -44.5L1471.25 348.25" stroke="url(#paint0_linear)"/>
<path d="M187.5 463.5L522.5 405.5M187.5 463.5L239.5 314.5M187.5 463.5L94.25 696.25M522.5 405.5L709.5 564.5M522.5 405.5L494.5 271.5M709.5 564.5L1039.5 433.5M709.5 564.5L602.5 717.5M1039.5 433.5L1208.5 592M1039.5 433.5L1133 233M1208.5 592L1294 542M1208.5 592L1167.5 840.5M1294 542L1414 606.5M1294 542L1220 271.5L1239.5 215M1294 542L1471.25 348.25M239.5 314.5L221 271.5M239.5 314.5L298 324M221 271.5L47.5 200.5M221 271.5L494.5 -114.5L543.5 200.5M221 271.5L447 245.5M298 324L510 770M298 324L447 245.5M494.5 271.5L855.5 314.5M494.5 271.5L543.5 200.5M494.5 271.5L447 245.5M855.5 314.5L839 422.5M855.5 314.5L811 135M855.5 314.5L1019.5 154.5M839 422.5H955M839 422.5L825.5 486.5M955 422.5L1019.5 154.5M955 422.5L939.527 604.528M825.5 486.5L543.5 200.5M825.5 486.5L939.527 604.528M543.5 200.5L766.5 -44.5L811 135M447 245.5L510 770M1414 606.5L1393.5 759L1208.5 870.5M1414 606.5L1461.5 624M1461.5 624L1648.5 463.5L1471.25 348.25M1461.5 624L1689.5 929L1393.5 1124.5L1208.5 870.5M1167.5 840.5L1208.5 870.5M1167.5 840.5L631.5 770M1167.5 840.5L939.527 604.528M602.5 717.5L631.5 770M602.5 717.5L510 770M631.5 770L902 1046L939.527 604.528M631.5 770L426.5 1075L510 770M631.5 770L939.527 604.528M510 770L1 929L94.25 696.25M510 770L94.25 696.25M1133 233L1101 154.5M1133 233L1239.5 215M1101 154.5H1019.5M1101 154.5L1090.5 108.5L1190.5 37M1239.5 215L1294 233M1294 233L1414 135M1294 233L1471.25 348.25M1019.5 154.5L811 135M1019.5 154.5V-24.5M811 135L1019.5 -24.5M1019.5 -24.5L1190.5 37M1190.5 37L1294 -94.5L1414 135M1414 135L1569 -44.5L1471.25 348.25" stroke="url(#paint1_linear)"/>
<path d="M816.5 130L704 567M816.5 130L1213.5 585.5M816.5 130L1191.5 41L1136 230.5L1213.5 585.5M816.5 130L556 -213L499 276M816.5 130L499 276M704 567L924.5 807L1213.5 585.5M704 567L924.5 1037.5L1393 933.5L1213.5 585.5M704 567L72 698L499 276" stroke="#6CCCE1" stroke-dasharray="10 10"/>
<circle cx="856" cy="314" r="10" fill="#CFAE6F"/>
<circle cx="941" cy="601" r="10" fill="#CFAE6F"/>
<circle cx="510" cy="768" r="10" fill="#CFAE6F"/>
<circle cx="186" cy="464" r="10" fill="#CFAE6F"/>
<circle cx="495" cy="274" r="10" fill="#CFAE6F"/>
<circle cx="241" cy="312" r="10" fill="#CFAE6F"/>
<circle cx="601" cy="723" r="10" fill="#CFAE6F"/>
<circle cx="1292" cy="541" r="10" fill="#CFAE6F"/>
<circle cx="1173" cy="840" r="10" fill="#CFAE6F"/>
<circle cx="1209" cy="871" r="5" fill="#CFAE6F"/>
<circle cx="956" cy="423" r="5" fill="#CFAE6F"/>
<circle cx="923" cy="808" r="5" fill="#CFAE6F"/>
<circle cx="825" cy="485" r="5" fill="#CFAE6F"/>
<circle cx="633" cy="289" r="5" fill="#CFAE6F"/>
<circle cx="633" cy="773" r="5" fill="#CFAE6F"/>
<circle cx="350" cy="435" r="5" fill="#CFAE6F"/>
<circle cx="222" cy="274" r="5" fill="#CFAE6F"/>
<circle cx="301" cy="325" r="5" fill="#CFAE6F"/>
<circle cx="543" cy="200" r="5" fill="#CFAE6F"/>
<circle cx="445" cy="244" r="5" fill="#CFAE6F"/>
<circle cx="812" cy="132" r="10" fill="#CFAE6F"/>
<circle cx="1245" cy="215" r="10" fill="#CFAE6F"/>
<circle cx="1093" cy="107" r="10" fill="#CFAE6F"/>
<circle cx="1020" cy="154" r="5" fill="#CFAE6F"/>
<circle cx="1190" cy="39" r="5" fill="#CFAE6F"/>
<circle cx="1102" cy="154" r="5" fill="#CFAE6F"/>
<circle cx="1134" cy="233" r="5" fill="#CFAE6F"/>
<circle cx="1297" cy="233" r="5" fill="#CFAE6F"/>
<circle cx="1221" cy="272" r="5" fill="#CFAE6F"/>
<g   stroke-width="0" class="svg_movable">
    <circle id="svg_digital_puls" class="pulsation" cx="530" cy="410" r="40" fill="#C08718" fill-opacity="0.4"/>
    <circle id="svg_digital"  class="clickForShowProject" cx="530" cy="410" r="25" fill="#C08718"/>
   <text fill="#ffffff" font-size="45" font-family="Verdana" x="50" y="86">SVG</text>
    <!-- <path id="svg_digital_text" class="point_text" d="M565.96 389.2H568.6V403.6H571.6V389.2H574.288V403.648H575.44V408.256H572.872V406H565.96V389.2ZM579.594 406H576.882V389.2H579.234V399.832L580.194 396.136L582.354 389.2H585.258V406H582.882V394.168L581.802 398.296L579.594 406ZM591.828 404.104H590.844C589.516 404.104 588.524 403.752 587.868 403.048C587.228 402.344 586.908 401.312 586.908 399.952V395.368C586.908 394.008 587.228 392.976 587.868 392.272C588.524 391.568 589.516 391.216 590.844 391.216H591.828V389.2H594.42V391.216H595.404C596.732 391.216 597.716 391.568 598.356 392.272C599.012 392.976 599.34 394.008 599.34 395.368V399.952C599.34 401.312 599.012 402.344 598.356 403.048C597.716 403.752 596.732 404.104 595.404 404.104H594.42V406H591.828V404.104ZM594.42 393.544V401.8H595.404C595.82 401.8 596.14 401.672 596.364 401.416C596.604 401.16 596.724 400.728 596.724 400.12V395.2C596.724 394.592 596.604 394.168 596.364 393.928C596.14 393.672 595.82 393.544 595.404 393.544H594.42ZM591.828 393.544H590.844C590.428 393.544 590.1 393.672 589.86 393.928C589.636 394.168 589.524 394.592 589.524 395.2V400.12C589.524 400.728 589.636 401.16 589.86 401.416C590.1 401.672 590.428 401.8 590.844 401.8H591.828V393.544ZM605.004 389.2C606.332 389.2 607.316 389.552 607.956 390.256C608.612 390.96 608.94 391.992 608.94 393.352V395.536C608.94 396.896 608.612 397.928 607.956 398.632C607.316 399.336 606.332 399.688 605.004 399.688H603.756V406H601.116V389.2H605.004ZM603.756 391.6V397.288H605.004C605.42 397.288 605.74 397.176 605.964 396.952C606.188 396.728 606.3 396.312 606.3 395.704V393.184C606.3 392.576 606.188 392.16 605.964 391.936C605.74 391.712 605.42 391.6 605.004 391.6H603.756ZM612.587 402.136C612.587 402.744 612.707 403.176 612.947 403.432C613.203 403.672 613.539 403.792 613.955 403.792C614.371 403.792 614.699 403.672 614.939 403.432C615.195 403.176 615.323 402.744 615.323 402.136V393.064C615.323 392.456 615.195 392.032 614.939 391.792C614.699 391.536 614.371 391.408 613.955 391.408C613.539 391.408 613.203 391.536 612.947 391.792C612.707 392.032 612.587 392.456 612.587 393.064V402.136ZM609.947 393.232C609.947 391.872 610.291 390.832 610.979 390.112C611.667 389.376 612.659 389.008 613.955 389.008C615.251 389.008 616.243 389.376 616.931 390.112C617.619 390.832 617.963 391.872 617.963 393.232V401.968C617.963 403.328 617.619 404.376 616.931 405.112C616.243 405.832 615.251 406.192 613.955 406.192C612.659 406.192 611.667 405.832 610.979 405.112C610.291 404.376 609.947 403.328 609.947 401.968V393.232ZM623.663 389.2C625.039 389.2 626.031 389.52 626.639 390.16C627.263 390.8 627.575 391.768 627.575 393.064V393.664C627.575 394.528 627.439 395.24 627.167 395.8C626.895 396.36 626.463 396.776 625.871 397.048C626.591 397.32 627.095 397.768 627.383 398.392C627.687 399 627.839 399.752 627.839 400.648V402.016C627.839 403.312 627.503 404.304 626.831 404.992C626.159 405.664 625.159 406 623.831 406H619.679V389.2H623.663ZM622.319 398.44V403.6H623.831C624.279 403.6 624.615 403.48 624.839 403.24C625.079 403 625.199 402.568 625.199 401.944V400.48C625.199 399.696 625.063 399.16 624.791 398.872C624.535 398.584 624.103 398.44 623.495 398.44H622.319ZM622.319 391.6V396.04H623.351C623.847 396.04 624.231 395.912 624.503 395.656C624.791 395.4 624.935 394.936 624.935 394.264V393.328C624.935 392.72 624.823 392.28 624.599 392.008C624.391 391.736 624.055 391.6 623.591 391.6H622.319ZM629.429 406V389.2H632.069V395.512H633.317C634.645 395.512 635.629 395.864 636.269 396.568C636.925 397.272 637.253 398.304 637.253 399.664V401.848C637.253 403.208 636.925 404.24 636.269 404.944C635.629 405.648 634.645 406 633.317 406H629.429ZM633.317 403.6C633.733 403.6 634.053 403.488 634.277 403.264C634.501 403.04 634.613 402.624 634.613 402.016V399.496C634.613 398.888 634.501 398.472 634.277 398.248C634.053 398.024 633.733 397.912 633.317 397.912H632.069V403.6H633.317ZM638.765 406V389.2H641.405V406H638.765ZM645.967 396.28H649.591V398.68H645.967V403.6H650.527V406H643.327V389.2H650.527V391.6H645.967V396.28ZM565.192 419.2H573.352V421.6H570.592V436H567.952V421.6H565.192V419.2ZM577.155 426.28H580.779V428.68H577.155V433.6H581.715V436H574.515V419.2H581.715V421.6H577.155V426.28ZM592.159 419.2L589.399 427.36L592.351 436H589.567L587.407 429.352L585.223 436H582.751L585.703 427.36L582.943 419.2H585.679L587.671 425.392L589.711 419.2H592.159ZM596.303 436H593.663V419.2H596.303V426.4H599.303V419.2H601.991V436H599.303V428.8H596.303V436ZM606.329 432.136C606.329 432.744 606.449 433.176 606.689 433.432C606.945 433.672 607.281 433.792 607.697 433.792C608.113 433.792 608.441 433.672 608.681 433.432C608.937 433.176 609.065 432.744 609.065 432.136V423.064C609.065 422.456 608.937 422.032 608.681 421.792C608.441 421.536 608.113 421.408 607.697 421.408C607.281 421.408 606.945 421.536 606.689 421.792C606.449 422.032 606.329 422.456 606.329 423.064V432.136ZM603.689 423.232C603.689 421.872 604.033 420.832 604.721 420.112C605.409 419.376 606.401 419.008 607.697 419.008C608.993 419.008 609.985 419.376 610.673 420.112C611.361 420.832 611.705 421.872 611.705 423.232V431.968C611.705 433.328 611.361 434.376 610.673 435.112C609.985 435.832 608.993 436.192 607.697 436.192C606.401 436.192 605.409 435.832 604.721 435.112C604.033 434.376 603.689 433.328 603.689 431.968V423.232ZM612.677 433.624C612.981 433.624 613.229 433.608 613.421 433.576C613.629 433.544 613.797 433.472 613.925 433.36C614.053 433.232 614.141 433.056 614.189 432.832C614.253 432.592 614.293 432.28 614.309 431.896L614.741 419.2H622.205V436H619.517V421.6H617.213L616.925 431.752C616.877 433.288 616.549 434.384 615.941 435.04C615.349 435.696 614.397 436.024 613.085 436.024H612.677V433.624ZM626.65 432.136C626.65 432.744 626.77 433.176 627.01 433.432C627.266 433.672 627.602 433.792 628.018 433.792C628.434 433.792 628.762 433.672 629.002 433.432C629.258 433.176 629.386 432.744 629.386 432.136V423.064C629.386 422.456 629.258 422.032 629.002 421.792C628.762 421.536 628.434 421.408 628.018 421.408C627.602 421.408 627.266 421.536 627.01 421.792C626.77 422.032 626.65 422.456 626.65 423.064V432.136ZM624.01 423.232C624.01 421.872 624.354 420.832 625.042 420.112C625.73 419.376 626.722 419.008 628.018 419.008C629.314 419.008 630.306 419.376 630.994 420.112C631.682 420.832 632.026 421.872 632.026 423.232V431.968C632.026 433.328 631.682 434.376 630.994 435.112C630.306 435.832 629.314 436.192 628.018 436.192C626.722 436.192 625.73 435.832 625.042 435.112C624.354 434.376 624.01 433.328 624.01 431.968V423.232ZM633.765 436V419.2H640.725V421.6H636.405V436H633.765ZM645.219 436H642.507V419.2H644.859V429.832L645.819 426.136L647.979 419.2H650.883V436H648.507V424.168L647.427 428.296L645.219 436ZM655.461 436H652.749V419.2H655.101V429.832L656.061 426.136L658.221 419.2H661.125V436H658.749V424.168L657.669 428.296L655.461 436Z" fill="#2E3237"/> -->
</g>

<g class="svg_movable_energy">
    <circle id="svg_energy_puls" cx="709" cy="564" class="pulsation" r="40" fill="#C08718" fill-opacity="0.4"/>
    <circle id="svg_energy" class="clickForShowProject" cx="709" cy="564" r="25" fill="#C08718"/>
    <path id="svg_energy_text" class="point_text" d="M747.12 548.976V551.136C747.12 551.744 747.24 552.168 747.48 552.408C747.736 552.648 748.072 552.768 748.488 552.768C748.904 552.768 749.232 552.648 749.472 552.408C749.728 552.168 749.856 551.744 749.856 551.136V547.512H747.432V545.112H749.856V542.064C749.856 541.456 749.728 541.032 749.472 540.792C749.232 540.536 748.904 540.408 748.488 540.408C748.072 540.408 747.736 540.536 747.48 540.792C747.24 541.032 747.12 541.456 747.12 542.064V543.648H744.672V542.232C744.672 540.872 744.992 539.832 745.632 539.112C746.288 538.376 747.264 538.008 748.56 538.008C749.856 538.008 750.832 538.376 751.488 539.112C752.16 539.832 752.496 540.872 752.496 542.232V550.968C752.496 552.328 752.16 553.376 751.488 554.112C750.832 554.832 749.856 555.192 748.56 555.192C747.264 555.192 746.28 554.832 745.608 554.112C744.952 553.376 744.624 552.328 744.624 550.968V548.976H747.12ZM756.858 555H754.218V538.2H756.858V545.4H759.858V538.2H762.546V555H759.858V547.8H756.858V555ZM767.1 545.28H770.724V547.68H767.1V552.6H771.66V555H764.46V538.2H771.66V540.6H767.1V545.28ZM777.184 538.2C778.512 538.2 779.496 538.552 780.136 539.256C780.792 539.96 781.12 540.992 781.12 542.352V544.536C781.12 545.896 780.792 546.928 780.136 547.632C779.496 548.336 778.512 548.688 777.184 548.688H775.936V555H773.296V538.2H777.184ZM775.936 540.6V546.288H777.184C777.6 546.288 777.92 546.176 778.144 545.952C778.368 545.728 778.48 545.312 778.48 544.704V542.184C778.48 541.576 778.368 541.16 778.144 540.936C777.92 540.712 777.6 540.6 777.184 540.6H775.936ZM782.367 555V538.2H789.327V540.6H785.007V555H782.367ZM793.748 545.28H797.372V547.68H793.748V552.6H798.308V555H791.108V538.2H798.308V540.6H793.748V545.28ZM799.176 538.2H807.336V540.6H804.576V555H801.936V540.6H799.176V538.2ZM811.211 555H808.499V538.2H810.851V548.832L811.811 545.136L813.971 538.2H816.875V555H814.499V543.168L813.419 547.296L811.211 555ZM822.197 548.304L821.381 549.84V555H818.741V538.2H821.381V545.52L824.837 538.2H827.477L823.805 545.688L827.477 555H824.765L822.197 548.304ZM837.223 555H834.559L834.103 551.952H830.863L830.407 555H827.983L830.671 538.2H834.535L837.223 555ZM831.199 549.672H833.743L832.471 541.176L831.199 549.672ZM747.672 585H744.96V568.2H747.312V578.832L748.272 575.136L750.432 568.2H753.336V585H750.96V573.168L749.88 577.296L747.672 585ZM761.089 578.976V581.136C761.089 581.744 761.209 582.168 761.449 582.408C761.705 582.648 762.041 582.768 762.457 582.768C762.873 582.768 763.201 582.648 763.441 582.408C763.697 582.168 763.825 581.744 763.825 581.136V577.512H761.401V575.112H763.825V572.064C763.825 571.456 763.697 571.032 763.441 570.792C763.201 570.536 762.873 570.408 762.457 570.408C762.041 570.408 761.705 570.536 761.449 570.792C761.209 571.032 761.089 571.456 761.089 572.064V573.648H758.641V572.232C758.641 570.872 758.961 569.832 759.601 569.112C760.257 568.376 761.233 568.008 762.529 568.008C763.825 568.008 764.801 568.376 765.457 569.112C766.129 569.832 766.465 570.872 766.465 572.232V580.968C766.465 582.328 766.129 583.376 765.457 584.112C764.801 584.832 763.825 585.192 762.529 585.192C761.233 585.192 760.249 584.832 759.577 584.112C758.921 583.376 758.593 582.328 758.593 580.968V578.976H761.089ZM770.827 585H768.187V568.2H770.827V575.4H773.827V568.2H776.515V585H773.827V577.8H770.827V585ZM781.069 575.28H784.693V577.68H781.069V582.6H785.629V585H778.429V568.2H785.629V570.6H781.069V575.28ZM791.153 568.2C792.481 568.2 793.465 568.552 794.105 569.256C794.761 569.96 795.089 570.992 795.089 572.352V574.536C795.089 575.896 794.761 576.928 794.105 577.632C793.465 578.336 792.481 578.688 791.153 578.688H789.905V585H787.265V568.2H791.153ZM789.905 570.6V576.288H791.153C791.569 576.288 791.889 576.176 792.113 575.952C792.337 575.728 792.449 575.312 792.449 574.704V572.184C792.449 571.576 792.337 571.16 792.113 570.936C791.889 570.712 791.569 570.6 791.153 570.6H789.905ZM796.336 585V568.2H803.296V570.6H798.976V585H796.336ZM807.501 581.136C807.501 581.744 807.621 582.176 807.861 582.432C808.117 582.672 808.453 582.792 808.869 582.792C809.285 582.792 809.613 582.672 809.853 582.432C810.109 582.176 810.237 581.744 810.237 581.136V572.064C810.237 571.456 810.109 571.032 809.853 570.792C809.613 570.536 809.285 570.408 808.869 570.408C808.453 570.408 808.117 570.536 807.861 570.792C807.621 571.032 807.501 571.456 807.501 572.064V581.136ZM804.861 572.232C804.861 570.872 805.205 569.832 805.893 569.112C806.581 568.376 807.573 568.008 808.869 568.008C810.165 568.008 811.157 568.376 811.845 569.112C812.533 569.832 812.877 570.872 812.877 572.232V580.968C812.877 582.328 812.533 583.376 811.845 584.112C811.157 584.832 810.165 585.192 808.869 585.192C807.573 585.192 806.581 584.832 805.893 584.112C805.205 583.376 804.861 582.328 804.861 580.968V572.232ZM822.249 578.736V580.968C822.249 582.328 821.913 583.376 821.241 584.112C820.585 584.832 819.609 585.192 818.313 585.192C817.017 585.192 816.033 584.832 815.361 584.112C814.705 583.376 814.377 582.328 814.377 580.968V572.232C814.377 570.872 814.705 569.832 815.361 569.112C816.033 568.376 817.017 568.008 818.313 568.008C819.609 568.008 820.585 568.376 821.241 569.112C821.913 569.832 822.249 570.872 822.249 572.232V573.864H819.753V572.064C819.753 571.456 819.625 571.032 819.369 570.792C819.129 570.536 818.801 570.408 818.385 570.408C817.969 570.408 817.633 570.536 817.377 570.792C817.137 571.032 817.017 571.456 817.017 572.064V581.136C817.017 581.744 817.137 582.168 817.377 582.408C817.633 582.648 817.969 582.768 818.385 582.768C818.801 582.768 819.129 582.648 819.369 582.408C819.625 582.168 819.753 581.744 819.753 581.136V578.736H822.249ZM823.875 585V568.2H831.267V570.6H826.515V574.896H828.051C829.379 574.896 830.371 575.248 831.027 575.952C831.699 576.656 832.035 577.688 832.035 579.048V580.848C832.035 582.208 831.699 583.24 831.027 583.944C830.371 584.648 829.379 585 828.051 585H823.875ZM828.051 582.6C828.467 582.6 828.795 582.488 829.035 582.264C829.275 582.04 829.395 581.624 829.395 581.016V578.88C829.395 578.272 829.275 577.856 829.035 577.632C828.795 577.408 828.467 577.296 828.051 577.296H826.515V582.6H828.051ZM836.452 575.28H840.076V577.68H836.452V582.6H841.012V585H833.812V568.2H841.012V570.6H836.452V575.28ZM846.536 568.2C847.864 568.2 848.848 568.552 849.488 569.256C850.144 569.96 850.472 570.992 850.472 572.352V574.536C850.472 575.896 850.144 576.928 849.488 577.632C848.848 578.336 847.864 578.688 846.536 578.688H845.288V585H842.648V568.2H846.536ZM845.288 570.6V576.288H846.536C846.952 576.288 847.272 576.176 847.496 575.952C847.72 575.728 847.832 575.312 847.832 574.704V572.184C847.832 571.576 847.72 571.16 847.496 570.936C847.272 570.712 846.952 570.6 846.536 570.6H845.288ZM854.334 575.28H857.958V577.68H854.334V582.6H858.894V585H851.694V568.2H858.894V570.6H854.334V575.28ZM868.138 574.992L871.258 568.2H873.898L870.658 575.016L873.898 585H871.186L868.786 577.56L868.138 578.832V585H865.522V578.832L864.874 577.536L862.474 585H859.762L863.026 575.088L859.762 568.2H862.402L865.522 574.992V568.2H868.138V574.992ZM877.655 575.28H881.279V577.68H877.655V582.6H882.215V585H875.015V568.2H882.215V570.6H877.655V575.28ZM886.491 585H883.851V568.2H886.491V575.4H889.491V568.2H892.179V585H889.491V577.8H886.491V585ZM896.805 585H894.093V568.2H896.445V578.832L897.405 575.136L899.565 568.2H902.469V585H900.093V573.168L899.013 577.296L896.805 585ZM906.975 575.28H910.599V577.68H906.975V582.6H911.535V585H904.335V568.2H911.535V570.6H906.975V575.28Z" fill="#2E3237"/>
</g>

<g class="svg_movable_food">
    <circle id="svg_food_puls" cx="1037" cy="438" class="pulsation" r="40" fill="#C08718" fill-opacity="0.4"/>
    <circle id="svg_food" class="clickForShowProject" cx="1037" cy="438" r="25" fill="#C08718"/>
    <path id="svg_food_text" class="point_text" d="M1075.6 429H1072.96V412.2H1081.29V429H1078.6V414.6H1075.6V429ZM1085.91 429H1083.2V412.2H1085.55V422.832L1086.51 419.136L1088.67 412.2H1091.58V429H1089.2V417.168L1088.12 421.296L1085.91 429ZM1105.92 426.648H1107.1V431.256H1104.53V429H1093.44V412.2H1096.08V426.6H1098.36V412.2H1101V426.6H1103.28V412.2H1105.92V426.648ZM1111.18 419.28H1114.8V421.68H1111.18V426.6H1115.74V429H1108.54V412.2H1115.74V414.6H1111.18V419.28ZM1121.36 412.2C1122.73 412.2 1123.73 412.52 1124.33 413.16C1124.96 413.8 1125.27 414.768 1125.27 416.064V416.664C1125.27 417.528 1125.13 418.24 1124.86 418.8C1124.59 419.36 1124.16 419.776 1123.57 420.048C1124.29 420.32 1124.79 420.768 1125.08 421.392C1125.38 422 1125.53 422.752 1125.53 423.648V425.016C1125.53 426.312 1125.2 427.304 1124.53 427.992C1123.85 428.664 1122.85 429 1121.53 429H1117.37V412.2H1121.36ZM1120.01 421.44V426.6H1121.53C1121.97 426.6 1122.31 426.48 1122.53 426.24C1122.77 426 1122.89 425.568 1122.89 424.944V423.48C1122.89 422.696 1122.76 422.16 1122.49 421.872C1122.23 421.584 1121.8 421.44 1121.19 421.44H1120.01ZM1120.01 414.6V419.04H1121.05C1121.54 419.04 1121.93 418.912 1122.2 418.656C1122.49 418.4 1122.63 417.936 1122.63 417.264V416.328C1122.63 415.72 1122.52 415.28 1122.29 415.008C1122.09 414.736 1121.75 414.6 1121.29 414.6H1120.01ZM1135.67 429H1133L1132.55 425.952H1129.31L1128.85 429H1126.43L1129.12 412.2H1132.98L1135.67 429ZM1129.64 423.672H1132.19L1130.92 415.176L1129.64 423.672ZM1136.42 429C1136.55 428.68 1136.63 428.368 1136.66 428.064C1136.69 427.744 1136.71 427.376 1136.71 426.96V424.368C1136.71 423.488 1136.83 422.744 1137.07 422.136C1137.32 421.512 1137.79 421.064 1138.46 420.792C1137.31 420.248 1136.73 419.112 1136.73 417.384V416.064C1136.73 414.768 1137.03 413.8 1137.64 413.16C1138.27 412.52 1139.27 412.2 1140.64 412.2H1144.63V429H1141.99V422.16H1141.07C1140.47 422.16 1140.03 422.32 1139.75 422.64C1139.48 422.96 1139.35 423.512 1139.35 424.296V426.936C1139.35 427.272 1139.34 427.552 1139.32 427.776C1139.32 428 1139.31 428.184 1139.27 428.328C1139.26 428.472 1139.23 428.592 1139.2 428.688C1139.17 428.784 1139.14 428.888 1139.11 429H1136.42ZM1140.71 414.6C1140.25 414.6 1139.91 414.736 1139.68 415.008C1139.47 415.28 1139.37 415.72 1139.37 416.328V417.984C1139.37 418.656 1139.51 419.12 1139.78 419.376C1140.07 419.632 1140.46 419.76 1140.95 419.76H1141.99V414.6H1140.71ZM1075.6 459H1072.96V442.2H1081.29V459H1078.6V444.6H1075.6V459ZM1087.09 442.2C1088.42 442.2 1089.4 442.552 1090.04 443.256C1090.7 443.96 1091.03 444.992 1091.03 446.352V448.536C1091.03 449.896 1090.7 450.928 1090.04 451.632C1089.4 452.336 1088.42 452.688 1087.09 452.688H1085.84V459H1083.2V442.2H1087.09ZM1085.84 444.6V450.288H1087.09C1087.51 450.288 1087.83 450.176 1088.05 449.952C1088.27 449.728 1088.39 449.312 1088.39 448.704V446.184C1088.39 445.576 1088.27 445.16 1088.05 444.936C1087.83 444.712 1087.51 444.6 1087.09 444.6H1085.84ZM1094.67 455.136C1094.67 455.744 1094.79 456.176 1095.03 456.432C1095.29 456.672 1095.63 456.792 1096.04 456.792C1096.46 456.792 1096.79 456.672 1097.03 456.432C1097.28 456.176 1097.41 455.744 1097.41 455.136V446.064C1097.41 445.456 1097.28 445.032 1097.03 444.792C1096.79 444.536 1096.46 444.408 1096.04 444.408C1095.63 444.408 1095.29 444.536 1095.03 444.792C1094.79 445.032 1094.67 445.456 1094.67 446.064V455.136ZM1092.03 446.232C1092.03 444.872 1092.38 443.832 1093.07 443.112C1093.75 442.376 1094.75 442.008 1096.04 442.008C1097.34 442.008 1098.33 442.376 1099.02 443.112C1099.71 443.832 1100.05 444.872 1100.05 446.232V454.968C1100.05 456.328 1099.71 457.376 1099.02 458.112C1098.33 458.832 1097.34 459.192 1096.04 459.192C1094.75 459.192 1093.75 458.832 1093.07 458.112C1092.38 457.376 1092.03 456.328 1092.03 454.968V446.232ZM1107.36 454.128L1109.16 442.2H1112.83V459H1110.33V446.952L1108.51 459H1106.01L1104.04 447.12V459H1101.74V442.2H1105.41L1107.36 454.128ZM1114.75 459V442.2H1117.39V448.512H1118.64C1119.97 448.512 1120.95 448.864 1121.59 449.568C1122.25 450.272 1122.57 451.304 1122.57 452.664V454.848C1122.57 456.208 1122.25 457.24 1121.59 457.944C1120.95 458.648 1119.97 459 1118.64 459H1114.75ZM1118.64 456.6C1119.05 456.6 1119.37 456.488 1119.6 456.264C1119.82 456.04 1119.93 455.624 1119.93 455.016V452.496C1119.93 451.888 1119.82 451.472 1119.6 451.248C1119.37 451.024 1119.05 450.912 1118.64 450.912H1117.39V456.6H1118.64ZM1124.09 459V442.2H1126.73V459H1124.09ZM1128.65 459V442.2H1131.29V456.6H1133.57V442.2H1136.21V456.6H1138.49V442.2H1141.13V459H1128.65ZM1142.29 456.624C1142.6 456.624 1142.85 456.608 1143.04 456.576C1143.25 456.544 1143.41 456.472 1143.54 456.36C1143.67 456.232 1143.76 456.056 1143.81 455.832C1143.87 455.592 1143.91 455.28 1143.93 454.896L1144.36 442.2H1151.82V459H1149.13V444.6H1146.83L1146.54 454.752C1146.49 456.288 1146.17 457.384 1145.56 458.04C1144.97 458.696 1144.01 459.024 1142.7 459.024H1142.29V456.624ZM1156.48 449.28H1160.11V451.68H1156.48V456.6H1161.04V459H1153.84V442.2H1161.04V444.6H1156.48V449.28ZM1165.32 459H1162.68V442.2H1165.32V449.4H1168.32V442.2H1171.01V459H1168.32V451.8H1165.32V459ZM1175.56 459H1172.92V442.2H1175.56V449.4H1178.56V442.2H1181.25V459H1178.56V451.8H1175.56V459ZM1185.59 455.136C1185.59 455.744 1185.71 456.176 1185.95 456.432C1186.2 456.672 1186.54 456.792 1186.96 456.792C1187.37 456.792 1187.7 456.672 1187.94 456.432C1188.2 456.176 1188.32 455.744 1188.32 455.136V446.064C1188.32 445.456 1188.2 445.032 1187.94 444.792C1187.7 444.536 1187.37 444.408 1186.96 444.408C1186.54 444.408 1186.2 444.536 1185.95 444.792C1185.71 445.032 1185.59 445.456 1185.59 446.064V455.136ZM1182.95 446.232C1182.95 444.872 1183.29 443.832 1183.98 443.112C1184.67 442.376 1185.66 442.008 1186.96 442.008C1188.25 442.008 1189.24 442.376 1189.93 443.112C1190.62 443.832 1190.96 444.872 1190.96 446.232V454.968C1190.96 456.328 1190.62 457.376 1189.93 458.112C1189.24 458.832 1188.25 459.192 1186.96 459.192C1185.66 459.192 1184.67 458.832 1183.98 458.112C1183.29 457.376 1182.95 456.328 1182.95 454.968V446.232ZM1200.33 452.736V454.968C1200.33 456.328 1200 457.376 1199.33 458.112C1198.67 458.832 1197.69 459.192 1196.4 459.192C1195.1 459.192 1194.12 458.832 1193.45 458.112C1192.79 457.376 1192.46 456.328 1192.46 454.968V446.232C1192.46 444.872 1192.79 443.832 1193.45 443.112C1194.12 442.376 1195.1 442.008 1196.4 442.008C1197.69 442.008 1198.67 442.376 1199.33 443.112C1200 443.832 1200.33 444.872 1200.33 446.232V447.864H1197.84V446.064C1197.84 445.456 1197.71 445.032 1197.45 444.792C1197.21 444.536 1196.89 444.408 1196.47 444.408C1196.05 444.408 1195.72 444.536 1195.46 444.792C1195.22 445.032 1195.1 445.456 1195.1 446.064V455.136C1195.1 455.744 1195.22 456.168 1195.46 456.408C1195.72 456.648 1196.05 456.768 1196.47 456.768C1196.89 456.768 1197.21 456.648 1197.45 456.408C1197.71 456.168 1197.84 455.744 1197.84 455.136V452.736H1200.33ZM1201.17 442.2H1209.33V444.6H1206.57V459H1203.93V444.6H1201.17V442.2ZM1210.49 459V442.2H1213.13V448.512H1214.38C1215.71 448.512 1216.69 448.864 1217.33 449.568C1217.99 450.272 1218.32 451.304 1218.32 452.664V454.848C1218.32 456.208 1217.99 457.24 1217.33 457.944C1216.69 458.648 1215.71 459 1214.38 459H1210.49ZM1214.38 456.6C1214.8 456.6 1215.12 456.488 1215.34 456.264C1215.56 456.04 1215.68 455.624 1215.68 455.016V452.496C1215.68 451.888 1215.56 451.472 1215.34 451.248C1215.12 451.024 1214.8 450.912 1214.38 450.912H1213.13V456.6H1214.38Z" fill="#2E3237"/>
</g>


     <defs>
<linearGradient id="paint0_linear" x1="845.25" y1="-114.5" x2="845.25" y2="1124.5" gradientUnits="userSpaceOnUse">
<stop stop-color="white"/>
<stop offset="1" stop-color="white" stop-opacity="0"/>
</linearGradient>
<linearGradient id="paint1_linear" x1="446.5" y1="972" x2="687.5" y2="789" gradientUnits="userSpaceOnUse">
<stop stop-color="white"/>
<stop offset="1" stop-color="white" stop-opacity="0"/>
</linearGradient>
</defs>
</svg>
