<svg width="14" height="15" viewBox="0 0 14 15" fill="none" xmlns="http://www.w3.org/2000/svg">
<path d="M6.3335 9.50016H7.66683V10.8335H6.3335V9.50016ZM6.3335 4.16683H7.66683V8.16683H6.3335V4.16683ZM6.9935 0.833496C3.3135 0.833496 0.333496 3.82016 0.333496 7.50016C0.333496 11.1802 3.3135 14.1668 6.9935 14.1668C10.6802 14.1668 13.6668 11.1802 13.6668 7.50016C13.6668 3.82016 10.6802 0.833496 6.9935 0.833496ZM7.00016 12.8335C4.0535 12.8335 1.66683 10.4468 1.66683 7.50016C1.66683 4.5535 4.0535 2.16683 7.00016 2.16683C9.94683 2.16683 12.3335 4.5535 12.3335 7.50016C12.3335 10.4468 9.94683 12.8335 7.00016 12.8335Z" fill="#BF4646"/>
</svg>
