<svg width="768" height="1024" viewBox="0 0 768 1024" fill="none" xmlns="http://www.w3.org/2000/svg">
<path d="M199 -176L350 -32.5M199 -176L489.993 -206.259M199 -176L110.874 -358.244M350 -32.5L231.712 259.242M350 -32.5L539 112.5M231.712 259.242L356.85 591.509M231.712 259.242L80.6301 149.551M356.85 591.509L195.383 757.677M356.85 591.509L555.663 688.544M195.383 757.677L243.862 844.049M195.383 757.677L-52.3521 712.285M243.862 844.049L177.248 962.888M243.862 844.049L515.629 774.849L571.775 795.346M243.862 844.049L434.444 1024.7M489.993 -206.259L533.313 -223.995M489.993 -206.259L456 -151M533.313 -223.995L607.373 -396.211M533.313 -223.995L712.5 -13L805.5 19M533.313 -223.995L506.5 9.99999M456 -151L29.7757 56.1357M456 -151L506.5 9.99999M539 112.5L479.088 409.645M539 112.5L805.5 19M539 112.5L506.5 9.99999M479.088 409.645L371.397 391.235M479.088 409.645L659.348 368.329M479.088 409.645L636.16 576.451M371.397 391.235L369.344 507.217M371.397 391.235L307.646 376.605M369.344 507.217L636.16 576.451M369.344 507.217L187.619 488.524M307.646 376.605L805.5 19M307.646 376.605L187.619 488.524M805.5 19L839.608 327.014L659.348 368.329M506.5 9.99999L29.7757 56.1357M177.248 962.888L25.1345 939.692L-83.0732 752.747M177.248 962.888L158.91 1010.07M158.91 1010.07L316.074 1199.88L434.444 1024.7M158.91 1010.07L-150.079 1232.64L-340.308 933.222L-83.0732 752.747M-52.3521 712.285L-83.0732 752.747M-52.3521 712.285L27.6249 177.617M-52.3521 712.285L187.619 488.524M80.6301 149.551L27.6249 177.617M80.6301 149.551L29.7757 56.1357M27.6249 177.617L-253.12 443.189L187.619 488.524M27.6249 177.617L-273.698 -32.7503L29.7757 56.1357M27.6249 177.617L187.619 488.524M29.7757 56.1357L-120.189 -455.599L110.874 -358.244M29.7757 56.1357L110.874 -358.244M555.663 688.544L634.718 657.938M555.663 688.544L571.775 795.346M634.718 657.938L636.16 576.451M634.718 657.938L680.896 648.254L750.615 749.504M571.775 795.346L552.813 849.519M552.813 849.519L648.674 971.235M552.813 849.519L434.444 1024.7M636.16 576.451L659.348 368.329M636.16 576.451L815.132 579.62M659.348 368.329L815.132 579.62M815.132 579.62L750.615 749.504M750.615 749.504L880.262 855.316L648.674 971.235M648.674 971.235L825.402 1129.39L434.444 1024.7" stroke="#2E3237"/>
<path d="M199 -176L350 -32.5M199 -176L489.993 -206.259M199 -176L110.874 -358.244M350 -32.5L231.712 259.242M350 -32.5L539 112.5M231.712 259.242L356.85 591.509M231.712 259.242L80.6301 149.551M356.85 591.509L195.383 757.677M356.85 591.509L555.663 688.544M195.383 757.677L243.862 844.049M195.383 757.677L-52.3521 712.285M243.862 844.049L177.248 962.888M243.862 844.049L515.629 774.849L571.775 795.346M243.862 844.049L434.444 1024.7M489.993 -206.259L533.313 -223.995M489.993 -206.259L456 -151M533.313 -223.995L607.373 -396.211M533.313 -223.995L712.5 -13L805.5 19M533.313 -223.995L506.5 9.99999M456 -151L29.7757 56.1357M456 -151L506.5 9.99999M539 112.5L479.088 409.645M539 112.5L805.5 19M539 112.5L506.5 9.99999M479.088 409.645L371.397 391.235M479.088 409.645L659.348 368.329M479.088 409.645L636.16 576.451M371.397 391.235L369.344 507.217M371.397 391.235L307.646 376.605M369.344 507.217L636.16 576.451M369.344 507.217L187.619 488.524M307.646 376.605L805.5 19M307.646 376.605L187.619 488.524M805.5 19L839.608 327.014L659.348 368.329M506.5 9.99999L29.7757 56.1357M177.248 962.888L25.1345 939.692L-83.0732 752.747M177.248 962.888L158.91 1010.07M158.91 1010.07L316.074 1199.88L434.444 1024.7M158.91 1010.07L-150.079 1232.64L-340.308 933.222L-83.0732 752.747M-52.3521 712.285L-83.0732 752.747M-52.3521 712.285L27.6249 177.617M-52.3521 712.285L187.619 488.524M80.6301 149.551L27.6249 177.617M80.6301 149.551L29.7757 56.1357M27.6249 177.617L-253.12 443.189L187.619 488.524M27.6249 177.617L-273.698 -32.7503L29.7757 56.1357M27.6249 177.617L187.619 488.524M29.7757 56.1357L-120.189 -455.599L110.874 -358.244M29.7757 56.1357L110.874 -358.244M555.663 688.544L634.718 657.938M555.663 688.544L571.775 795.346M634.718 657.938L636.16 576.451M634.718 657.938L680.896 648.254L750.615 749.504M571.775 795.346L552.813 849.519M552.813 849.519L648.674 971.235M552.813 849.519L434.444 1024.7M636.16 576.451L659.348 368.329M636.16 576.451L815.132 579.62M659.348 368.329L815.132 579.62M815.132 579.62L750.615 749.504M750.615 749.504L880.262 855.316L648.674 971.235M648.674 971.235L825.402 1129.39L434.444 1024.7" stroke="url(#paint0_linear)"/>
<path d="M199 -176L350 -32.5M199 -176L489.993 -206.259M199 -176L110.874 -358.244M350 -32.5L231.712 259.242M350 -32.5L539 112.5M231.712 259.242L356.85 591.509M231.712 259.242L80.6301 149.551M356.85 591.509L195.383 757.677M356.85 591.509L555.663 688.544M195.383 757.677L243.862 844.049M195.383 757.677L-52.3521 712.285M243.862 844.049L177.248 962.888M243.862 844.049L515.629 774.849L571.775 795.346M243.862 844.049L434.444 1024.7M489.993 -206.259L533.313 -223.995M489.993 -206.259L456 -151M533.313 -223.995L607.373 -396.211M533.313 -223.995L712.5 -13L805.5 19M533.313 -223.995L506.5 9.99999M456 -151L29.7757 56.1357M456 -151L506.5 9.99999M539 112.5L479.088 409.645M539 112.5L805.5 19M539 112.5L506.5 9.99999M479.088 409.645L371.397 391.235M479.088 409.645L659.348 368.329M479.088 409.645L636.16 576.451M371.397 391.235L369.344 507.217M371.397 391.235L307.646 376.605M369.344 507.217L636.16 576.451M369.344 507.217L187.619 488.524M307.646 376.605L805.5 19M307.646 376.605L187.619 488.524M805.5 19L839.608 327.014L659.348 368.329M506.5 9.99999L29.7757 56.1357M177.248 962.888L25.1345 939.692L-83.0732 752.747M177.248 962.888L158.91 1010.07M158.91 1010.07L316.074 1199.88L434.444 1024.7M158.91 1010.07L-150.079 1232.64L-340.308 933.222L-83.0732 752.747M-52.3521 712.285L-83.0732 752.747M-52.3521 712.285L27.6249 177.617M-52.3521 712.285L187.619 488.524M80.6301 149.551L27.6249 177.617M80.6301 149.551L29.7757 56.1357M27.6249 177.617L-253.12 443.189L187.619 488.524M27.6249 177.617L-273.698 -32.7503L29.7757 56.1357M27.6249 177.617L187.619 488.524M29.7757 56.1357L-120.189 -455.599L110.874 -358.244M29.7757 56.1357L110.874 -358.244M555.663 688.544L634.718 657.938M555.663 688.544L571.775 795.346M634.718 657.938L636.16 576.451M634.718 657.938L680.896 648.254L750.615 749.504M571.775 795.346L552.813 849.519M552.813 849.519L648.674 971.235M552.813 849.519L434.444 1024.7M636.16 576.451L659.348 368.329M636.16 576.451L815.132 579.62M659.348 368.329L815.132 579.62M815.132 579.62L750.615 749.504M750.615 749.504L880.262 855.316L648.674 971.235M648.674 971.235L825.402 1129.39L434.444 1024.7" stroke="url(#paint1_linear)"/>
<path d="M664.25 373.916L229.31 253.699M664.25 373.916L201.794 762.792M664.25 373.916L746.598 750.434L558.11 691.588L201.794 762.792M664.25 373.916L1011.81 119.529L635.5 183M664.25 373.916L635.5 183M229.31 253.699L-14.556 469.916L201.794 762.792M229.31 253.699L-245.02 465.836L-149.329 936.102L201.794 762.792M229.31 253.699L488.5 -137L635.5 183" stroke="#6CCCE1" stroke-dasharray="10 10"/>
<circle cx="661" cy="371" r="10" fill="#CFAE6F"/>
<circle cx="538" cy="115" r="10" fill="#CFAE6F"/>
<circle cx="637" cy="180" r="10" fill="#CFAE6F"/>
<circle cx="656.998" cy="746" r="10" fill="#CFAE6F"/>
<circle cx="108.999" cy="801" r="10" fill="#CFAE6F"/>
<circle cx="95.999" cy="311" r="10" fill="#CFAE6F"/>
<circle cx="199.999" cy="756" r="10" fill="#CFAE6F"/>
<circle cx="772" cy="873" r="10" fill="#CFAE6F"/>
<circle cx="543" cy="477" r="5" fill="#CFAE6F"/>
<circle cx="521.998" cy="841" r="5" fill="#CFAE6F"/>
<circle cx="516" cy="228" r="5" fill="#CFAE6F"/>
<circle cx="622" cy="150" r="5" fill="#CFAE6F"/>
<circle cx="594" cy="93" r="5" fill="#CFAE6F"/>
<circle cx="231.999" cy="806" r="5" fill="#CFAE6F"/>
<circle cx="284" cy="399" r="5" fill="#CFAE6F"/>
<circle cx="117" cy="353" r="5" fill="#CFAE6F"/>
<circle cx="43.999" cy="277" r="5" fill="#CFAE6F"/>
<circle cx="411" cy="302" r="10" fill="#CFAE6F"/>
<circle cx="355" cy="594" r="10" fill="#CFAE6F"/>
<circle cx="371" cy="391" r="5" fill="#CFAE6F"/>
<circle cx="495" cy="328" r="5" fill="#CFAE6F"/>
<circle cx="473" cy="533" r="5" fill="#CFAE6F"/>
<circle cx="76" cy="594" r="5" fill="#CFAE6F"/>
<circle cx="680" cy="649" r="5" fill="#CFAE6F"/>
<defs>
<linearGradient id="paint0_linear" x1="908.203" y1="406.99" x2="-330.603" y2="385.058" gradientUnits="userSpaceOnUse">
<stop stop-color="white"/>
<stop offset="1" stop-color="white" stop-opacity="0"/>
</linearGradient>
<linearGradient id="paint1_linear" x1="-171.068" y1="-10.9301" x2="7.63681" y2="233.272" gradientUnits="userSpaceOnUse">
<stop stop-color="white"/>
<stop offset="1" stop-color="white" stop-opacity="0"/>
</linearGradient>
</defs>
</svg>
