<svg width="32" height="32" viewBox="0 0 32 32" fill="none" xmlns="http://www.w3.org/2000/svg">
    <rect width="32" height="32" fill="#2E3237"/>
    <path d="M9.936 9.848C9.936 7.808 10.416 6.248 11.376 5.168C12.36 4.064 13.824 3.512 15.768 3.512C17.712 3.512 19.164 4.064 20.124 5.168C21.108 6.248 21.6 7.808 21.6 9.848V10.64H17.856V9.596C17.856 8.684 17.676 8.048 17.316 7.688C16.98 7.304 16.5 7.112 15.876 7.112C15.252 7.112 14.76 7.304 14.4 7.688C14.064 8.048 13.896 8.684 13.896 9.596C13.896 10.46 14.088 11.228 14.472 11.9C14.856 12.548 15.336 13.172 15.912 13.772C16.488 14.348 17.1 14.936 17.748 15.536C18.42 16.112 19.044 16.748 19.62 17.444C20.196 18.14 20.676 18.932 21.06 19.82C21.444 20.708 21.636 21.752 21.636 22.952C21.636 24.992 21.132 26.564 20.124 27.668C19.14 28.748 17.676 29.288 15.732 29.288C13.788 29.288 12.312 28.748 11.304 27.668C10.32 26.564 9.828 24.992 9.828 22.952V21.404H13.572V23.204C13.572 24.116 13.752 24.752 14.112 25.112C14.496 25.472 15 25.652 15.624 25.652C16.248 25.652 16.74 25.472 17.1 25.112C17.484 24.752 17.676 24.116 17.676 23.204C17.676 22.34 17.484 21.584 17.1 20.936C16.716 20.264 16.236 19.64 15.66 19.064C15.084 18.464 14.46 17.876 13.788 17.3C13.14 16.7 12.528 16.052 11.952 15.356C11.376 14.66 10.896 13.868 10.512 12.98C10.128 12.092 9.936 11.048 9.936 9.848Z" fill="#C08718"/>
</svg>
