<svg width="36" height="36" viewBox="0 0 36 36" fill="none" xmlns="http://www.w3.org/2000/svg">
<path fill-rule="evenodd" clip-rule="evenodd" d="M35.25 18C35.25 27.5269 27.5269 35.25 18 35.25C8.47309 35.25 0.75 27.5269 0.75 18C0.75 8.47309 8.47309 0.75 18 0.75C27.5269 0.75 35.25 8.47309 35.25 18ZM33.75 18C33.75 26.6985 26.6985 33.75 18 33.75C9.30152 33.75 2.25 26.6985 2.25 18C2.25 9.30152 9.30152 2.25 18 2.25C26.6985 2.25 33.75 9.30152 33.75 18Z" fill="black"/>
<path d="M19.791 29.562V19.014H23.331L23.862 14.9025H19.791V12.279C19.791 11.088 20.121 10.2765 21.828 10.2765H24V6.59998C22.9463 6.48776 21.8872 6.43368 20.8275 6.43798C17.6895 6.43798 15.54 8.35348 15.54 11.871V14.9025H12V19.014H15.549V29.562H19.791Z" fill="black"/>
</svg>
