<svg width="36" height="36" viewBox="0 0 36 36" fill="none" xmlns="http://www.w3.org/2000/svg">
<path fill-rule="evenodd" clip-rule="evenodd" d="M35.25 18C35.25 27.5269 27.5269 35.25 18 35.25C8.47309 35.25 0.75 27.5269 0.75 18C0.75 8.47309 8.47309 0.75 18 0.75C27.5269 0.75 35.25 8.47309 35.25 18ZM33.75 18C33.75 26.6985 26.6985 33.75 18 33.75C9.30152 33.75 2.25 26.6985 2.25 18C2.25 9.30152 9.30152 2.25 18 2.25C26.6985 2.25 33.75 9.30152 33.75 18Z" fill="black"/>
<path d="M18 9.99886C20.6055 9.99886 20.9145 10.0094 21.9435 10.0559C22.5623 10.0632 23.1752 10.1769 23.7555 10.3919C24.1764 10.5545 24.5585 10.8033 24.8776 11.1223C25.1966 11.4413 25.4454 11.8235 25.608 12.2444C25.8251 12.8243 25.9408 13.4372 25.95 14.0564C25.9965 15.0854 26.007 15.3944 26.007 17.9999C26.007 20.6054 25.9965 20.9144 25.95 21.9434C25.9427 22.5622 25.829 23.1751 25.614 23.7554C25.4514 24.1762 25.2026 24.5584 24.8836 24.8774C24.5646 25.1964 24.1824 25.4452 23.7615 25.6079C23.1797 25.8256 22.5647 25.9413 21.9435 25.9499C20.9145 25.9964 20.6055 26.0069 18 26.0069C15.3945 26.0069 15.0855 25.9964 14.0565 25.9499C13.4377 25.9425 12.8248 25.8289 12.2445 25.6139C11.8237 25.4512 11.4415 25.2024 11.1225 24.8834C10.8035 24.5644 10.5547 24.1822 10.392 23.7614C10.1743 23.1795 10.0586 22.5645 10.05 21.9434C10.0035 20.9144 9.99304 20.6054 9.99304 17.9999C9.99304 15.3944 10.0035 15.0854 10.05 14.0564C10.0574 13.4376 10.171 12.8246 10.386 12.2444C10.5493 11.8229 10.7991 11.4404 11.1192 11.1213C11.4392 10.8023 11.8226 10.5538 12.2445 10.3919C12.8245 10.1748 13.4374 10.0591 14.0565 10.0499C15.0855 10.0034 15.3945 9.99286 18 9.99286V9.99886ZM18 8.23486C15.3495 8.23486 15.0165 8.24536 13.977 8.29336C13.1674 8.30932 12.3662 8.46145 11.607 8.74336C10.9603 8.99478 10.373 9.37799 9.88231 9.86863C9.39166 10.3593 9.00845 10.9466 8.75704 11.5934C8.47512 12.3525 8.323 13.1537 8.30704 13.9634C8.25904 15.0029 8.24854 15.3359 8.24854 17.9864C8.24854 20.6369 8.25904 20.9699 8.30704 22.0094C8.323 22.819 8.47512 23.6202 8.75704 24.3794C9.00845 25.0261 9.39166 25.6134 9.88231 26.1041C10.373 26.5947 10.9603 26.9779 11.607 27.2294C12.3662 27.5113 13.1674 27.6634 13.977 27.6794C15.0165 27.7274 15.3495 27.7379 18 27.7379C20.6505 27.7379 20.9835 27.7274 22.023 27.6794C22.8327 27.6634 23.6339 27.5113 24.393 27.2294C25.0398 26.9779 25.6271 26.5947 26.1178 26.1041C26.6084 25.6134 26.9916 25.0261 27.243 24.3794C27.5249 23.6202 27.6771 22.819 27.693 22.0094C27.741 20.9699 27.7515 20.6369 27.7515 17.9864C27.7515 15.3359 27.741 15.0029 27.693 13.9634C27.6771 13.1537 27.5249 12.3525 27.243 11.5934C26.9916 10.9466 26.6084 10.3593 26.1178 9.86863C25.6271 9.37799 25.0398 8.99478 24.393 8.74336C23.6339 8.46145 22.8327 8.30932 22.023 8.29336C20.9835 8.24536 20.6505 8.23486 18 8.23486Z" fill="black"/>
<path d="M17.9998 12.9885C17.0086 12.9885 16.0397 13.2824 15.2155 13.8331C14.3914 14.3838 13.7491 15.1665 13.3698 16.0822C12.9905 16.9979 12.8912 18.0056 13.0846 18.9777C13.2779 19.9499 13.7552 20.8428 14.4561 21.5437C15.157 22.2446 16.05 22.7219 17.0221 22.9152C17.9942 23.1086 19.0019 23.0094 19.9176 22.63C20.8333 22.2507 21.616 21.6084 22.1667 20.7843C22.7174 19.9601 23.0113 18.9912 23.0113 18C23.0113 16.6709 22.4833 15.3962 21.5434 14.4564C20.6036 13.5165 19.3289 12.9885 17.9998 12.9885ZM17.9998 21.2535C17.3563 21.2535 16.7273 21.0627 16.1922 20.7052C15.6572 20.3477 15.2402 19.8396 14.9939 19.2451C14.7477 18.6506 14.6833 17.9964 14.8088 17.3653C14.9343 16.7342 15.2442 16.1545 15.6992 15.6995C16.1542 15.2444 16.7339 14.9346 17.3651 14.809C17.9962 14.6835 18.6503 14.7479 19.2448 14.9942C19.8393 15.2404 20.3475 15.6574 20.705 16.1925C21.0625 16.7275 21.2533 17.3565 21.2533 18C21.2533 18.8629 20.9105 19.6904 20.3004 20.3006C19.6902 20.9107 18.8627 21.2535 17.9998 21.2535Z" fill="black"/>
<path d="M23.2096 13.9619C23.8566 13.9619 24.3811 13.4374 24.3811 12.7904C24.3811 12.1434 23.8566 11.6189 23.2096 11.6189C22.5626 11.6189 22.0381 12.1434 22.0381 12.7904C22.0381 13.4374 22.5626 13.9619 23.2096 13.9619Z" fill="black"/>
</svg>
