<svg width="36" height="36" viewBox="0 0 36 36" fill="none" xmlns="http://www.w3.org/2000/svg">
<path d="M11.2654 7.5C10.9681 7.49977 10.6736 7.56012 10.3988 7.6776C10.124 7.79508 9.87431 7.96739 9.66394 8.18469C9.45356 8.40199 9.28664 8.66002 9.17272 8.94404C9.0588 9.22807 9.00011 9.53252 9 9.84C9 11.1341 10.014 12.2066 11.2629 12.2066C12.5134 12.2066 13.5283 11.1341 13.5283 9.84177C13.5285 9.53433 13.4701 9.22986 13.3565 8.94575C13.2429 8.66164 13.0763 8.40347 12.8661 8.186C12.656 7.96852 12.4064 7.796 12.1318 7.67829C11.8571 7.56058 11.5627 7.5 11.2654 7.5ZM22.3157 13.7045C20.4137 13.7045 19.326 14.7327 18.8031 15.7556H18.7483V13.9802H15V27H18.906V20.5553C18.906 18.857 19.0294 17.2154 21.0617 17.2154C23.0649 17.2154 23.094 19.1521 23.094 20.6625V27H27V19.8488C27 16.3495 26.2723 13.7045 22.3157 13.7045ZM9.31114 13.9793V27H13.2197V13.9793H9.31114Z" fill="black"/>
<path fill-rule="evenodd" clip-rule="evenodd" d="M35.25 18C35.25 27.5269 27.5269 35.25 18 35.25C8.47309 35.25 0.75 27.5269 0.75 18C0.75 8.47309 8.47309 0.75 18 0.75C27.5269 0.75 35.25 8.47309 35.25 18ZM33.75 18C33.75 26.6985 26.6985 33.75 18 33.75C9.30152 33.75 2.25 26.6985 2.25 18C2.25 9.30152 9.30152 2.25 18 2.25C26.6985 2.25 33.75 9.30152 33.75 18Z" fill="black"/>
</svg>
