<svg width="36" height="37" viewBox="0 0 36 37" fill="none" xmlns="http://www.w3.org/2000/svg">
<g clip-path="url(#clip0)">
<path d="M27.75 29H9.75C8.50736 29 7.5 27.9926 7.5 26.75V13.1521C7.55243 11.9479 8.5446 10.9989 9.75 11H27.75C28.9926 11 30 12.0074 30 13.25V26.75C30 27.9926 28.9926 29 27.75 29ZM9.75 15.3515V26.75H27.75V15.3515L18.75 21.35L9.75 15.3515ZM10.65 13.25L18.75 18.65L26.85 13.25H10.65Z" fill="black"/>
<path fill-rule="evenodd" clip-rule="evenodd" d="M36 19.25C36 28.7769 28.2769 36.5 18.75 36.5C9.22309 36.5 1.5 28.7769 1.5 19.25C1.5 9.72309 9.22309 2 18.75 2C28.2769 2 36 9.72309 36 19.25ZM34.5 19.25C34.5 27.9485 27.4485 35 18.75 35C10.0515 35 3 27.9485 3 19.25C3 10.5515 10.0515 3.5 18.75 3.5C27.4485 3.5 34.5 10.5515 34.5 19.25Z" fill="black"/>
</g>
<defs>
<clipPath id="clip0">
<rect width="36" height="36" fill="white" transform="translate(0 0.5)"/>
</clipPath>
</defs>
</svg>
