<svg width="36" height="36" viewBox="0 0 36 36" fill="none" xmlns="http://www.w3.org/2000/svg">
<path fill-rule="evenodd" clip-rule="evenodd" d="M35.25 18C35.25 27.5269 27.5269 35.25 18 35.25C8.47309 35.25 0.75 27.5269 0.75 18C0.75 8.47309 8.47309 0.75 18 0.75C27.5269 0.75 35.25 8.47309 35.25 18ZM33.75 18C33.75 26.6985 26.6985 33.75 18 33.75C9.30152 33.75 2.25 26.6985 2.25 18C2.25 9.30152 9.30152 2.25 18 2.25C26.6985 2.25 33.75 9.30152 33.75 18Z" fill="black"/>
<path d="M18.0004 18.3345C19.0587 18.3345 20.0932 18.0207 20.9731 17.4327C21.8531 16.8447 22.5388 16.009 22.9438 15.0312C23.3487 14.0535 23.4546 12.9776 23.248 11.9397C23.0414 10.9017 22.5317 9.94836 21.7832 9.20014C21.0348 8.45192 20.0813 7.94245 19.0433 7.73617C18.0053 7.52989 16.9295 7.63606 15.9518 8.04126C14.9742 8.44646 14.1386 9.13248 13.5509 10.0126C12.9632 10.8926 12.6496 11.9273 12.6499 12.9855C12.6515 14.404 13.2158 15.7638 14.2189 16.7666C15.222 17.7695 16.582 18.3334 18.0004 18.3345ZM18.0004 10.77C18.4386 10.77 18.8669 10.9 19.2313 11.1434C19.5956 11.3869 19.8796 11.7329 20.0473 12.1377C20.2149 12.5425 20.2588 12.988 20.1733 13.4178C20.0878 13.8475 19.8768 14.2423 19.567 14.5521C19.2572 14.862 18.8624 15.073 18.4326 15.1585C18.0029 15.244 17.5574 15.2001 17.1526 15.0324C16.7477 14.8647 16.4017 14.5807 16.1583 14.2164C15.9148 13.8521 15.7849 13.4237 15.7849 12.9855C15.7853 12.3981 16.0188 11.8348 16.4342 11.4194C16.8496 11.004 17.4129 10.7704 18.0004 10.77Z" fill="black"/>
<path d="M20.1647 22.6996C21.2656 22.4482 22.3163 22.0131 23.2727 21.4126C23.6208 21.189 23.8665 20.8369 23.9563 20.4331C24.0461 20.0292 23.9728 19.6062 23.7523 19.2562C23.5318 18.9061 23.1819 18.6573 22.7788 18.5639C22.3758 18.4705 21.9522 18.5402 21.6002 18.7576C20.5206 19.4322 19.2732 19.7899 18.0002 19.7899C16.7272 19.7899 15.4798 19.4322 14.4002 18.7576C14.0484 18.5479 13.6285 18.4841 13.2303 18.5797C12.8321 18.6754 12.4871 18.923 12.2689 19.2696C12.0508 19.6162 11.9768 20.0344 12.0628 20.4348C12.1488 20.8352 12.3879 21.1861 12.7292 21.4126C13.6854 22.0124 14.7355 22.4474 15.8357 22.6996L12.8432 25.6906C12.574 25.9894 12.4299 26.3802 12.4408 26.7822C12.4517 27.1842 12.6167 27.5666 12.9016 27.8504C13.1866 28.1342 13.5697 28.2976 13.9717 28.3069C14.3738 28.3161 14.764 28.1705 15.0617 27.9001L18.0002 24.9676L20.9402 27.9001C21.0856 28.0455 21.2583 28.1609 21.4484 28.2397C21.6385 28.3184 21.8422 28.3589 22.0479 28.3589C22.2536 28.3589 22.4574 28.3184 22.6474 28.2397C22.8375 28.1609 23.0102 28.0455 23.1557 27.9001C23.3011 27.7546 23.4165 27.5819 23.4953 27.3918C23.574 27.2018 23.6145 26.9981 23.6145 26.7923C23.6145 26.5866 23.574 26.3829 23.4953 26.1928C23.4165 26.0028 23.3011 25.83 23.1557 25.6846L20.1647 22.6996Z" fill="black"/>
</svg>
