<svg width="36" height="36" viewBox="0 0 36 36" fill="none" xmlns="http://www.w3.org/2000/svg">
<path fill-rule="evenodd" clip-rule="evenodd" d="M35.25 18C35.25 27.5269 27.5269 35.25 18 35.25C8.47309 35.25 0.75 27.5269 0.75 18C0.75 8.47309 8.47309 0.75 18 0.75C27.5269 0.75 35.25 8.47309 35.25 18ZM33.75 18C33.75 26.6985 26.6985 33.75 18 33.75C9.30152 33.75 2.25 26.6985 2.25 18C2.25 9.30152 9.30152 2.25 18 2.25C26.6985 2.25 33.75 9.30152 33.75 18Z" fill="black"/>
<path d="M22.875 22.5C21.9885 22.5 21.1875 22.8487 20.5868 23.4079L12.6488 18.7875C12.705 18.5287 12.75 18.27 12.75 18C12.75 17.73 12.705 17.4712 12.6488 17.2125L20.58 12.5887C21.1875 13.1512 21.9863 13.5 22.875 13.5C24.7425 13.5 26.25 11.9925 26.25 10.125C26.25 8.2575 24.7425 6.75 22.875 6.75C21.0075 6.75 19.5 8.2575 19.5 10.125C19.5 10.395 19.545 10.6537 19.6013 10.9125L11.67 15.5362C11.0625 14.9737 10.2638 14.625 9.375 14.625C7.5075 14.625 6 16.1325 6 18C6 19.8675 7.5075 21.375 9.375 21.375C10.2638 21.375 11.0625 21.0262 11.67 20.4637L19.599 25.0965C19.5357 25.3512 19.5024 25.6125 19.5 25.875C19.5 26.5425 19.6979 27.195 20.0688 27.75C20.4396 28.3051 20.9667 28.7376 21.5834 28.9931C22.2001 29.2485 22.8787 29.3154 23.5334 29.1851C24.1881 29.0549 24.7895 28.7335 25.2615 28.2615C25.7335 27.7895 26.0549 27.1881 26.1852 26.5334C26.3154 25.8787 26.2485 25.2001 25.9931 24.5834C25.7377 23.9667 25.3051 23.4396 24.7501 23.0688C24.195 22.6979 23.5425 22.5 22.875 22.5Z" fill="black"/>
</svg>
