<svg width="36" height="36" viewBox="0 0 36 36" fill="none" xmlns="http://www.w3.org/2000/svg">
<path fill-rule="evenodd" clip-rule="evenodd" d="M35.25 18C35.25 27.5269 27.5269 35.25 18 35.25C8.47309 35.25 0.75 27.5269 0.75 18C0.75 8.47309 8.47309 0.75 18 0.75C27.5269 0.75 35.25 8.47309 35.25 18ZM33.75 18C33.75 26.6985 26.6985 33.75 18 33.75C9.30152 33.75 2.25 26.6985 2.25 18C2.25 9.30152 9.30152 2.25 18 2.25C26.6985 2.25 33.75 9.30152 33.75 18Z" fill="black"/>
<path fill-rule="evenodd" clip-rule="evenodd" d="M17.2904 24.828H18.7334C18.7334 24.828 19.1699 24.78 19.3919 24.54C19.6139 24.3 19.5899 23.9055 19.5899 23.9055C19.5899 23.9055 19.5629 21.9705 20.4599 21.6855C21.3569 21.4005 22.4834 23.556 23.6894 24.3855C24.5999 25.011 25.2929 24.8745 25.2929 24.8745L28.5164 24.8295C28.5164 24.8295 30.2024 24.7245 29.4029 23.3985C29.3384 23.2905 28.9379 22.419 27.0029 20.6265C24.9854 18.75 25.2569 19.05 27.6914 15.807C29.1734 13.83 29.7659 12.624 29.5814 12.108C29.4044 11.616 28.3139 11.745 28.3139 11.745L24.6839 11.7675C24.5232 11.7488 24.3606 11.7774 24.2159 11.85C24.0782 11.9509 23.9682 12.0851 23.8964 12.24C23.5197 13.2147 23.0715 14.1603 22.5554 15.069C20.9399 17.814 20.2934 17.9595 20.0294 17.7885C19.4144 17.391 19.5674 16.194 19.5674 15.342C19.5674 12.6825 19.9709 11.574 18.7829 11.292C18.3884 11.1975 18.0974 11.142 17.0879 11.124C15.7934 11.1105 14.6969 11.124 14.0759 11.424C13.6634 11.6265 13.3454 12.078 13.5389 12.1035C13.7789 12.135 14.3219 12.2535 14.6099 12.642C14.9819 13.1475 14.9699 14.2845 14.9699 14.2845C14.9699 14.2845 15.1829 17.415 14.4704 17.8035C13.9814 18.0705 13.3094 17.526 11.8694 15.036C11.3803 14.1697 10.9474 13.2728 10.5734 12.351C10.5065 12.1944 10.4037 12.0557 10.2734 11.946C10.1045 11.8341 9.91473 11.7575 9.71544 11.721L6.26544 11.7435C6.26544 11.7435 5.74794 11.7585 5.55744 11.9835C5.39094 12.186 5.54994 12.6 5.54994 12.6C5.54994 12.6 8.24994 18.9165 11.3069 22.0995C14.1104 25.0185 17.2934 24.828 17.2934 24.828H17.2904Z" fill="black"/>
</svg>
