<svg width="80" height="37" viewBox="0 0 80 37" fill="none" xmlns="http://www.w3.org/2000/svg">
<path d="M0.65 4.7C0.65 3.28333 0.983333 2.2 1.65 1.45C2.33333 0.683333 3.35 0.3 4.7 0.3C6.05 0.3 7.05833 0.683333 7.725 1.45C8.40833 2.2 8.75 3.28333 8.75 4.7V5.25H6.15V4.525C6.15 3.89167 6.025 3.45 5.775 3.2C5.54167 2.93333 5.20833 2.8 4.775 2.8C4.34167 2.8 4 2.93333 3.75 3.2C3.51667 3.45 3.4 3.89167 3.4 4.525C3.4 5.125 3.53333 5.65833 3.8 6.125C4.06667 6.575 4.4 7.00833 4.8 7.425C5.2 7.825 5.625 8.23333 6.075 8.65C6.54167 9.05 6.975 9.49167 7.375 9.975C7.775 10.4583 8.10833 11.0083 8.375 11.625C8.64167 12.2417 8.775 12.9667 8.775 13.8C8.775 15.2167 8.425 16.3083 7.725 17.075C7.04167 17.825 6.025 18.2 4.675 18.2C3.325 18.2 2.3 17.825 1.6 17.075C0.916667 16.3083 0.575 15.2167 0.575 13.8V12.725H3.175V13.975C3.175 14.6083 3.3 15.05 3.55 15.3C3.81667 15.55 4.16667 15.675 4.6 15.675C5.03333 15.675 5.375 15.55 5.625 15.3C5.89167 15.05 6.025 14.6083 6.025 13.975C6.025 13.375 5.89167 12.85 5.625 12.4C5.35833 11.9333 5.025 11.5 4.625 11.1C4.225 10.6833 3.79167 10.275 3.325 9.875C2.875 9.45833 2.45 9.00833 2.05 8.525C1.65 8.04167 1.31667 7.49167 1.05 6.875C0.783333 6.25833 0.65 5.53333 0.65 4.7ZM19.2506 18H16.4756L16.0006 14.825H12.6256L12.1506 18H9.62559L12.4256 0.499999H16.4506L19.2506 18ZM12.9756 12.45H15.6256L14.3006 3.6L12.9756 12.45ZM26.2813 18C26.2479 17.8833 26.2146 17.775 26.1813 17.675C26.1479 17.575 26.1146 17.45 26.0813 17.3C26.0646 17.15 26.0479 16.9583 26.0313 16.725C26.0313 16.4917 26.0313 16.2 26.0313 15.85V13.1C26.0313 12.2833 25.8896 11.7083 25.6063 11.375C25.3229 11.0417 24.8646 10.875 24.2313 10.875H23.2813V18H20.5313V0.499999H24.6813C26.1146 0.499999 27.1479 0.833332 27.7813 1.5C28.4313 2.16667 28.7563 3.175 28.7563 4.525V5.9C28.7563 7.7 28.1563 8.88333 26.9563 9.45C27.6563 9.73333 28.1313 10.2 28.3813 10.85C28.6479 11.4833 28.7813 12.2583 28.7813 13.175V15.875C28.7813 16.3083 28.7979 16.6917 28.8313 17.025C28.8646 17.3417 28.9479 17.6667 29.0813 18H26.2813ZM23.2813 3V8.375H24.3563C24.8729 8.375 25.2729 8.24167 25.5563 7.975C25.8563 7.70833 26.0063 7.225 26.0063 6.525V4.8C26.0063 4.16667 25.8896 3.70833 25.6563 3.425C25.4396 3.14167 25.0896 3 24.6063 3H23.2813ZM30.5898 0.499999H34.9398C36.3232 0.499999 37.3482 0.866666 38.0148 1.6C38.6982 2.33333 39.0398 3.40833 39.0398 4.825V13.675C39.0398 15.0917 38.6982 16.1667 38.0148 16.9C37.3482 17.6333 36.3232 18 34.9398 18H30.5898V0.499999ZM33.3398 3V15.5H34.8898C35.3232 15.5 35.6648 15.375 35.9148 15.125C36.1648 14.875 36.2898 14.4333 36.2898 13.8V4.7C36.2898 4.06667 36.1648 3.625 35.9148 3.375C35.6648 3.125 35.3232 3 34.8898 3H33.3398ZM49.6705 18H46.8955L46.4205 14.825H43.0455L42.5705 18H40.0455L42.8455 0.499999H46.8705L49.6705 18ZM43.3955 12.45H46.0455L44.7205 3.6L43.3955 12.45ZM56.7012 18C56.6678 17.8833 56.6345 17.775 56.6012 17.675C56.5678 17.575 56.5345 17.45 56.5012 17.3C56.4845 17.15 56.4678 16.9583 56.4512 16.725C56.4512 16.4917 56.4512 16.2 56.4512 15.85V13.1C56.4512 12.2833 56.3095 11.7083 56.0262 11.375C55.7428 11.0417 55.2845 10.875 54.6512 10.875H53.7012V18H50.9512V0.499999H55.1012C56.5345 0.499999 57.5678 0.833332 58.2012 1.5C58.8512 2.16667 59.1762 3.175 59.1762 4.525V5.9C59.1762 7.7 58.5762 8.88333 57.3762 9.45C58.0762 9.73333 58.5512 10.2 58.8012 10.85C59.0678 11.4833 59.2012 12.2583 59.2012 13.175V15.875C59.2012 16.3083 59.2178 16.6917 59.2512 17.025C59.2845 17.3417 59.3678 17.6667 59.5012 18H56.7012ZM53.7012 3V8.375H54.7762C55.2928 8.375 55.6928 8.24167 55.9762 7.975C56.2762 7.70833 56.4262 7.225 56.4262 6.525V4.8C56.4262 4.16667 56.3095 3.70833 56.0762 3.425C55.8595 3.14167 55.5095 3 55.0262 3H53.7012ZM64.5416 4.7C64.5416 3.28333 64.8749 2.2 65.5416 1.45C66.2249 0.683333 67.2416 0.3 68.5916 0.3C69.9416 0.3 70.9499 0.683333 71.6166 1.45C72.2999 2.2 72.6416 3.28333 72.6416 4.7V5.25H70.0416V4.525C70.0416 3.89167 69.9166 3.45 69.6666 3.2C69.4333 2.93333 69.0999 2.8 68.6666 2.8C68.2333 2.8 67.8916 2.93333 67.6416 3.2C67.4083 3.45 67.2916 3.89167 67.2916 4.525C67.2916 5.125 67.4249 5.65833 67.6916 6.125C67.9583 6.575 68.2916 7.00833 68.6916 7.425C69.0916 7.825 69.5166 8.23333 69.9666 8.65C70.4333 9.05 70.8666 9.49167 71.2666 9.975C71.6666 10.4583 71.9999 11.0083 72.2666 11.625C72.5333 12.2417 72.6666 12.9667 72.6666 13.8C72.6666 15.2167 72.3166 16.3083 71.6166 17.075C70.9333 17.825 69.9166 18.2 68.5666 18.2C67.2166 18.2 66.1916 17.825 65.4916 17.075C64.8083 16.3083 64.4666 15.2167 64.4666 13.8V12.725H67.0666V13.975C67.0666 14.6083 67.1916 15.05 67.4416 15.3C67.7083 15.55 68.0583 15.675 68.4916 15.675C68.9249 15.675 69.2666 15.55 69.5166 15.3C69.7833 15.05 69.9166 14.6083 69.9166 13.975C69.9166 13.375 69.7833 12.85 69.5166 12.4C69.2499 11.9333 68.9166 11.5 68.5166 11.1C68.1166 10.6833 67.6833 10.275 67.2166 9.875C66.7666 9.45833 66.3416 9.00833 65.9416 8.525C65.5416 8.04167 65.2083 7.49167 64.9416 6.875C64.6749 6.25833 64.5416 5.53333 64.5416 4.7ZM76.7701 15.35V18H74.1201V15.35H76.7701ZM0.65 22.7C0.65 21.2833 0.983333 20.2 1.65 19.45C2.33333 18.6833 3.35 18.3 4.7 18.3C6.05 18.3 7.05833 18.6833 7.725 19.45C8.40833 20.2 8.75 21.2833 8.75 22.7V23.25H6.15V22.525C6.15 21.8917 6.025 21.45 5.775 21.2C5.54167 20.9333 5.20833 20.8 4.775 20.8C4.34167 20.8 4 20.9333 3.75 21.2C3.51667 21.45 3.4 21.8917 3.4 22.525C3.4 23.125 3.53333 23.6583 3.8 24.125C4.06667 24.575 4.4 25.0083 4.8 25.425C5.2 25.825 5.625 26.2333 6.075 26.65C6.54167 27.05 6.975 27.4917 7.375 27.975C7.775 28.4583 8.10833 29.0083 8.375 29.625C8.64167 30.2417 8.775 30.9667 8.775 31.8C8.775 33.2167 8.425 34.3083 7.725 35.075C7.04167 35.825 6.025 36.2 4.675 36.2C3.325 36.2 2.3 35.825 1.6 35.075C0.916667 34.3083 0.575 33.2167 0.575 31.8V30.725H3.175V31.975C3.175 32.6083 3.3 33.05 3.55 33.3C3.81667 33.55 4.16667 33.675 4.6 33.675C5.03333 33.675 5.375 33.55 5.625 33.3C5.89167 33.05 6.025 32.6083 6.025 31.975C6.025 31.375 5.89167 30.85 5.625 30.4C5.35833 29.9333 5.025 29.5 4.625 29.1C4.225 28.6833 3.79167 28.275 3.325 27.875C2.875 27.4583 2.45 27.0083 2.05 26.525C1.65 26.0417 1.31667 25.4917 1.05 24.875C0.783333 24.2583 0.65 23.5333 0.65 22.7ZM19.2506 36H16.4756L16.0006 32.825H12.6256L12.1506 36H9.62559L12.4256 18.5H16.4506L19.2506 36ZM12.9756 30.45H15.6256L14.3006 21.6L12.9756 30.45ZM26.2813 36C26.2479 35.8833 26.2146 35.775 26.1813 35.675C26.1479 35.575 26.1146 35.45 26.0813 35.3C26.0646 35.15 26.0479 34.9583 26.0313 34.725C26.0313 34.4917 26.0313 34.2 26.0313 33.85V31.1C26.0313 30.2833 25.8896 29.7083 25.6063 29.375C25.3229 29.0417 24.8646 28.875 24.2313 28.875H23.2813V36H20.5313V18.5H24.6813C26.1146 18.5 27.1479 18.8333 27.7813 19.5C28.4313 20.1667 28.7563 21.175 28.7563 22.525V23.9C28.7563 25.7 28.1563 26.8833 26.9563 27.45C27.6563 27.7333 28.1313 28.2 28.3813 28.85C28.6479 29.4833 28.7813 30.2583 28.7813 31.175V33.875C28.7813 34.3083 28.7979 34.6917 28.8313 35.025C28.8646 35.3417 28.9479 35.6667 29.0813 36H26.2813ZM23.2813 21V26.375H24.3563C24.8729 26.375 25.2729 26.2417 25.5563 25.975C25.8563 25.7083 26.0063 25.225 26.0063 24.525V22.8C26.0063 22.1667 25.8896 21.7083 25.6563 21.425C25.4396 21.1417 25.0896 21 24.6063 21H23.2813ZM30.5898 18.5H34.9398C36.3232 18.5 37.3482 18.8667 38.0148 19.6C38.6982 20.3333 39.0398 21.4083 39.0398 22.825V31.675C39.0398 33.0917 38.6982 34.1667 38.0148 34.9C37.3482 35.6333 36.3232 36 34.9398 36H30.5898V18.5ZM33.3398 21V33.5H34.8898C35.3232 33.5 35.6648 33.375 35.9148 33.125C36.1648 32.875 36.2898 32.4333 36.2898 31.8V22.7C36.2898 22.0667 36.1648 21.625 35.9148 21.375C35.6648 21.125 35.3232 21 34.8898 21H33.3398ZM49.6705 36H46.8955L46.4205 32.825H43.0455L42.5705 36H40.0455L42.8455 18.5H46.8705L49.6705 36ZM43.3955 30.45H46.0455L44.7205 21.6L43.3955 30.45ZM56.7012 36C56.6678 35.8833 56.6345 35.775 56.6012 35.675C56.5678 35.575 56.5345 35.45 56.5012 35.3C56.4845 35.15 56.4678 34.9583 56.4512 34.725C56.4512 34.4917 56.4512 34.2 56.4512 33.85V31.1C56.4512 30.2833 56.3095 29.7083 56.0262 29.375C55.7428 29.0417 55.2845 28.875 54.6512 28.875H53.7012V36H50.9512V18.5H55.1012C56.5345 18.5 57.5678 18.8333 58.2012 19.5C58.8512 20.1667 59.1762 21.175 59.1762 22.525V23.9C59.1762 25.7 58.5762 26.8833 57.3762 27.45C58.0762 27.7333 58.5512 28.2 58.8012 28.85C59.0678 29.4833 59.2012 30.2583 59.2012 31.175V33.875C59.2012 34.3083 59.2178 34.6917 59.2512 35.025C59.2845 35.3417 59.3678 35.6667 59.5012 36H56.7012ZM53.7012 21V26.375H54.7762C55.2928 26.375 55.6928 26.2417 55.9762 25.975C56.2762 25.7083 56.4262 25.225 56.4262 24.525V22.8C56.4262 22.1667 56.3095 21.7083 56.0762 21.425C55.8595 21.1417 55.5095 21 55.0262 21H53.7012ZM63.5348 31.975C63.5348 32.6083 63.6598 33.0583 63.9098 33.325C64.1764 33.575 64.5264 33.7 64.9598 33.7C65.3931 33.7 65.7348 33.575 65.9848 33.325C66.2514 33.0583 66.3848 32.6083 66.3848 31.975V22.525C66.3848 21.8917 66.2514 21.45 65.9848 21.2C65.7348 20.9333 65.3931 20.8 64.9598 20.8C64.5264 20.8 64.1764 20.9333 63.9098 21.2C63.6598 21.45 63.5348 21.8917 63.5348 22.525V31.975ZM60.7848 22.7C60.7848 21.2833 61.1431 20.2 61.8598 19.45C62.5764 18.6833 63.6098 18.3 64.9598 18.3C66.3098 18.3 67.3431 18.6833 68.0598 19.45C68.7764 20.2 69.1348 21.2833 69.1348 22.7V31.8C69.1348 33.2167 68.7764 34.3083 68.0598 35.075C67.3431 35.825 66.3098 36.2 64.9598 36.2C63.6098 36.2 62.5764 35.825 61.8598 35.075C61.1431 34.3083 60.7848 33.2167 60.7848 31.8V22.7ZM75.0475 32.775L77.1475 18.5H79.6725L76.9725 36H72.8725L70.1725 18.5H72.9475L75.0475 32.775Z" fill="#C08718"/>
</svg>
