<svg width="90" height="41" viewBox="0 0 90 41" fill="none" xmlns="http://www.w3.org/2000/svg">
<path d="M0.728 5.104C0.728 3.51733 1.10133 2.304 1.848 1.464C2.61333 0.605333 3.752 0.176 5.264 0.176C6.776 0.176 7.90533 0.605333 8.652 1.464C9.41733 2.304 9.8 3.51733 9.8 5.104V5.72H6.888V4.908C6.888 4.19867 6.748 3.704 6.468 3.424C6.20667 3.12533 5.83333 2.976 5.348 2.976C4.86267 2.976 4.48 3.12533 4.2 3.424C3.93867 3.704 3.808 4.19867 3.808 4.908C3.808 5.58 3.95733 6.17733 4.256 6.7C4.55467 7.204 4.928 7.68933 5.376 8.156C5.824 8.604 6.3 9.06133 6.804 9.528C7.32667 9.976 7.812 10.4707 8.26 11.012C8.708 11.5533 9.08133 12.1693 9.38 12.86C9.67867 13.5507 9.828 14.3627 9.828 15.296C9.828 16.8827 9.436 18.1053 8.652 18.964C7.88667 19.804 6.748 20.224 5.236 20.224C3.724 20.224 2.576 19.804 1.792 18.964C1.02667 18.1053 0.644 16.8827 0.644 15.296V14.092H3.556V15.492C3.556 16.2013 3.696 16.696 3.976 16.976C4.27467 17.256 4.66667 17.396 5.152 17.396C5.63733 17.396 6.02 17.256 6.3 16.976C6.59867 16.696 6.748 16.2013 6.748 15.492C6.748 14.82 6.59867 14.232 6.3 13.728C6.00133 13.2053 5.628 12.72 5.18 12.272C4.732 11.8053 4.24667 11.348 3.724 10.9C3.22 10.4333 2.744 9.92933 2.296 9.388C1.848 8.84667 1.47467 8.23067 1.176 7.54C0.877333 6.84933 0.728 6.03733 0.728 5.104ZM21.5607 20H18.4527L17.9207 16.444H14.1407L13.6087 20H10.7807L13.9167 0.399999H18.4247L21.5607 20ZM14.5327 13.784H17.5007L16.0167 3.872L14.5327 13.784ZM29.435 20C29.3977 19.8693 29.3603 19.748 29.323 19.636C29.2857 19.524 29.2483 19.384 29.211 19.216C29.1923 19.048 29.1737 18.8333 29.155 18.572C29.155 18.3107 29.155 17.984 29.155 17.592V14.512C29.155 13.5973 28.9963 12.9533 28.679 12.58C28.3617 12.2067 27.8483 12.02 27.139 12.02H26.075V20H22.995V0.399999H27.643C29.2483 0.399999 30.4057 0.773332 31.115 1.52C31.843 2.26667 32.207 3.396 32.207 4.908V6.448C32.207 8.464 31.535 9.78933 30.191 10.424C30.975 10.7413 31.507 11.264 31.787 11.992C32.0857 12.7013 32.235 13.5693 32.235 14.596V17.62C32.235 18.1053 32.2537 18.5347 32.291 18.908C32.3283 19.2627 32.4217 19.6267 32.571 20H29.435ZM26.075 3.2V9.22H27.279C27.8577 9.22 28.3057 9.07067 28.623 8.772C28.959 8.47333 29.127 7.932 29.127 7.148V5.216C29.127 4.50667 28.9963 3.99333 28.735 3.676C28.4923 3.35867 28.1003 3.2 27.559 3.2H26.075ZM34.2606 0.399999H39.1326C40.682 0.399999 41.83 0.810666 42.5766 1.632C43.342 2.45333 43.7246 3.65733 43.7246 5.244V15.156C43.7246 16.7427 43.342 17.9467 42.5766 18.768C41.83 19.5893 40.682 20 39.1326 20H34.2606V0.399999ZM37.3406 3.2V17.2H39.0766C39.562 17.2 39.9446 17.06 40.2246 16.78C40.5046 16.5 40.6446 16.0053 40.6446 15.296V5.104C40.6446 4.39467 40.5046 3.9 40.2246 3.62C39.9446 3.34 39.562 3.2 39.0766 3.2H37.3406ZM55.631 20H52.523L51.991 16.444H48.211L47.679 20H44.851L47.987 0.399999H52.495L55.631 20ZM48.603 13.784H51.571L50.087 3.872L48.603 13.784ZM63.5053 20C63.468 19.8693 63.4306 19.748 63.3933 19.636C63.356 19.524 63.3186 19.384 63.2813 19.216C63.2626 19.048 63.244 18.8333 63.2253 18.572C63.2253 18.3107 63.2253 17.984 63.2253 17.592V14.512C63.2253 13.5973 63.0666 12.9533 62.7493 12.58C62.432 12.2067 61.9186 12.02 61.2093 12.02H60.1453V20H57.0653V0.399999H61.7133C63.3186 0.399999 64.476 0.773332 65.1853 1.52C65.9133 2.26667 66.2773 3.396 66.2773 4.908V6.448C66.2773 8.464 65.6053 9.78933 64.2613 10.424C65.0453 10.7413 65.5773 11.264 65.8573 11.992C66.156 12.7013 66.3053 13.5693 66.3053 14.596V17.62C66.3053 18.1053 66.324 18.5347 66.3613 18.908C66.3986 19.2627 66.492 19.6267 66.6413 20H63.5053ZM60.1453 3.2V9.22H61.3493C61.928 9.22 62.376 9.07067 62.6933 8.772C63.0293 8.47333 63.1973 7.932 63.1973 7.148V5.216C63.1973 4.50667 63.0666 3.99333 62.8053 3.676C62.5626 3.35867 62.1706 3.2 61.6293 3.2H60.1453ZM72.2866 5.104C72.2866 3.51733 72.6599 2.304 73.4066 1.464C74.1719 0.605333 75.3106 0.176 76.8226 0.176C78.3346 0.176 79.4639 0.605333 80.2106 1.464C80.9759 2.304 81.3586 3.51733 81.3586 5.104V5.72H78.4466V4.908C78.4466 4.19867 78.3066 3.704 78.0266 3.424C77.7653 3.12533 77.3919 2.976 76.9066 2.976C76.4213 2.976 76.0386 3.12533 75.7586 3.424C75.4973 3.704 75.3666 4.19867 75.3666 4.908C75.3666 5.58 75.5159 6.17733 75.8146 6.7C76.1133 7.204 76.4866 7.68933 76.9346 8.156C77.3826 8.604 77.8586 9.06133 78.3626 9.528C78.8853 9.976 79.3706 10.4707 79.8186 11.012C80.2666 11.5533 80.6399 12.1693 80.9386 12.86C81.2373 13.5507 81.3866 14.3627 81.3866 15.296C81.3866 16.8827 80.9946 18.1053 80.2106 18.964C79.4453 19.804 78.3066 20.224 76.7946 20.224C75.2826 20.224 74.1346 19.804 73.3506 18.964C72.5853 18.1053 72.2026 16.8827 72.2026 15.296V14.092H75.1146V15.492C75.1146 16.2013 75.2546 16.696 75.5346 16.976C75.8333 17.256 76.2253 17.396 76.7106 17.396C77.1959 17.396 77.5786 17.256 77.8586 16.976C78.1573 16.696 78.3066 16.2013 78.3066 15.492C78.3066 14.82 78.1573 14.232 77.8586 13.728C77.5599 13.2053 77.1866 12.72 76.7386 12.272C76.2906 11.8053 75.8053 11.348 75.2826 10.9C74.7786 10.4333 74.3026 9.92933 73.8546 9.388C73.4066 8.84667 73.0333 8.23067 72.7346 7.54C72.4359 6.84933 72.2866 6.03733 72.2866 5.104ZM85.9825 17.032V20H83.0145V17.032H85.9825ZM0.728 25.104C0.728 23.5173 1.10133 22.304 1.848 21.464C2.61333 20.6053 3.752 20.176 5.264 20.176C6.776 20.176 7.90533 20.6053 8.652 21.464C9.41733 22.304 9.8 23.5173 9.8 25.104V25.72H6.888V24.908C6.888 24.1987 6.748 23.704 6.468 23.424C6.20667 23.1253 5.83333 22.976 5.348 22.976C4.86267 22.976 4.48 23.1253 4.2 23.424C3.93867 23.704 3.808 24.1987 3.808 24.908C3.808 25.58 3.95733 26.1773 4.256 26.7C4.55467 27.204 4.928 27.6893 5.376 28.156C5.824 28.604 6.3 29.0613 6.804 29.528C7.32667 29.976 7.812 30.4707 8.26 31.012C8.708 31.5533 9.08133 32.1693 9.38 32.86C9.67867 33.5507 9.828 34.3627 9.828 35.296C9.828 36.8827 9.436 38.1053 8.652 38.964C7.88667 39.804 6.748 40.224 5.236 40.224C3.724 40.224 2.576 39.804 1.792 38.964C1.02667 38.1053 0.644 36.8827 0.644 35.296V34.092H3.556V35.492C3.556 36.2013 3.696 36.696 3.976 36.976C4.27467 37.256 4.66667 37.396 5.152 37.396C5.63733 37.396 6.02 37.256 6.3 36.976C6.59867 36.696 6.748 36.2013 6.748 35.492C6.748 34.82 6.59867 34.232 6.3 33.728C6.00133 33.2053 5.628 32.72 5.18 32.272C4.732 31.8053 4.24667 31.348 3.724 30.9C3.22 30.4333 2.744 29.9293 2.296 29.388C1.848 28.8467 1.47467 28.2307 1.176 27.54C0.877333 26.8493 0.728 26.0373 0.728 25.104ZM21.5607 40H18.4527L17.9207 36.444H14.1407L13.6087 40H10.7807L13.9167 20.4H18.4247L21.5607 40ZM14.5327 33.784H17.5007L16.0167 23.872L14.5327 33.784ZM29.435 40C29.3977 39.8693 29.3603 39.748 29.323 39.636C29.2857 39.524 29.2483 39.384 29.211 39.216C29.1923 39.048 29.1737 38.8333 29.155 38.572C29.155 38.3107 29.155 37.984 29.155 37.592V34.512C29.155 33.5973 28.9963 32.9533 28.679 32.58C28.3617 32.2067 27.8483 32.02 27.139 32.02H26.075V40H22.995V20.4H27.643C29.2483 20.4 30.4057 20.7733 31.115 21.52C31.843 22.2667 32.207 23.396 32.207 24.908V26.448C32.207 28.464 31.535 29.7893 30.191 30.424C30.975 30.7413 31.507 31.264 31.787 31.992C32.0857 32.7013 32.235 33.5693 32.235 34.596V37.62C32.235 38.1053 32.2537 38.5347 32.291 38.908C32.3283 39.2627 32.4217 39.6267 32.571 40H29.435ZM26.075 23.2V29.22H27.279C27.8577 29.22 28.3057 29.0707 28.623 28.772C28.959 28.4733 29.127 27.932 29.127 27.148V25.216C29.127 24.5067 28.9963 23.9933 28.735 23.676C28.4923 23.3587 28.1003 23.2 27.559 23.2H26.075ZM34.2606 20.4H39.1326C40.682 20.4 41.83 20.8107 42.5766 21.632C43.342 22.4533 43.7246 23.6573 43.7246 25.244V35.156C43.7246 36.7427 43.342 37.9467 42.5766 38.768C41.83 39.5893 40.682 40 39.1326 40H34.2606V20.4ZM37.3406 23.2V37.2H39.0766C39.562 37.2 39.9446 37.06 40.2246 36.78C40.5046 36.5 40.6446 36.0053 40.6446 35.296V25.104C40.6446 24.3947 40.5046 23.9 40.2246 23.62C39.9446 23.34 39.562 23.2 39.0766 23.2H37.3406ZM55.631 40H52.523L51.991 36.444H48.211L47.679 40H44.851L47.987 20.4H52.495L55.631 40ZM48.603 33.784H51.571L50.087 23.872L48.603 33.784ZM63.5053 40C63.468 39.8693 63.4306 39.748 63.3933 39.636C63.356 39.524 63.3186 39.384 63.2813 39.216C63.2626 39.048 63.244 38.8333 63.2253 38.572C63.2253 38.3107 63.2253 37.984 63.2253 37.592V34.512C63.2253 33.5973 63.0666 32.9533 62.7493 32.58C62.432 32.2067 61.9186 32.02 61.2093 32.02H60.1453V40H57.0653V20.4H61.7133C63.3186 20.4 64.476 20.7733 65.1853 21.52C65.9133 22.2667 66.2773 23.396 66.2773 24.908V26.448C66.2773 28.464 65.6053 29.7893 64.2613 30.424C65.0453 30.7413 65.5773 31.264 65.8573 31.992C66.156 32.7013 66.3053 33.5693 66.3053 34.596V37.62C66.3053 38.1053 66.324 38.5347 66.3613 38.908C66.3986 39.2627 66.492 39.6267 66.6413 40H63.5053ZM60.1453 23.2V29.22H61.3493C61.928 29.22 62.376 29.0707 62.6933 28.772C63.0293 28.4733 63.1973 27.932 63.1973 27.148V25.216C63.1973 24.5067 63.0666 23.9933 62.8053 23.676C62.5626 23.3587 62.1706 23.2 61.6293 23.2H60.1453ZM71.1589 35.492C71.1589 36.2013 71.2989 36.7053 71.5789 37.004C71.8776 37.284 72.2696 37.424 72.7549 37.424C73.2403 37.424 73.6229 37.284 73.9029 37.004C74.2016 36.7053 74.3509 36.2013 74.3509 35.492V24.908C74.3509 24.1987 74.2016 23.704 73.9029 23.424C73.6229 23.1253 73.2403 22.976 72.7549 22.976C72.2696 22.976 71.8776 23.1253 71.5789 23.424C71.2989 23.704 71.1589 24.1987 71.1589 24.908V35.492ZM68.0789 25.104C68.0789 23.5173 68.4803 22.304 69.2829 21.464C70.0856 20.6053 71.2429 20.176 72.7549 20.176C74.2669 20.176 75.4243 20.6053 76.2269 21.464C77.0296 22.304 77.4309 23.5173 77.4309 25.104V35.296C77.4309 36.8827 77.0296 38.1053 76.2269 38.964C75.4243 39.804 74.2669 40.224 72.7549 40.224C71.2429 40.224 70.0856 39.804 69.2829 38.964C68.4803 38.1053 68.0789 36.8827 68.0789 35.296V25.104ZM84.0532 36.388L86.4052 20.4H89.2332L86.2092 40H81.6172L78.5932 20.4H81.7012L84.0532 36.388Z" fill="#C08718"/>
</svg>
