<svg width="71" height="32" viewBox="0 0 71 33" fill="none" xmlns="http://www.w3.org/2000/svg">
<path d="M0.572 4.296C0.572 3.04933 0.865333 2.096 1.452 1.436C2.05333 0.761333 2.948 0.424 4.136 0.424C5.324 0.424 6.21133 0.761333 6.798 1.436C7.39933 2.096 7.7 3.04933 7.7 4.296V4.78H5.412V4.142C5.412 3.58467 5.302 3.196 5.082 2.976C4.87667 2.74133 4.58333 2.624 4.202 2.624C3.82067 2.624 3.52 2.74133 3.3 2.976C3.09467 3.196 2.992 3.58467 2.992 4.142C2.992 4.67 3.10933 5.13933 3.344 5.55C3.57867 5.946 3.872 6.32733 4.224 6.694C4.576 7.046 4.95 7.40533 5.346 7.772C5.75667 8.124 6.138 8.51267 6.49 8.938C6.842 9.36333 7.13533 9.84733 7.37 10.39C7.60467 10.9327 7.722 11.5707 7.722 12.304C7.722 13.5507 7.414 14.5113 6.798 15.186C6.19667 15.846 5.302 16.176 4.114 16.176C2.926 16.176 2.024 15.846 1.408 15.186C0.806667 14.5113 0.506 13.5507 0.506 12.304V11.358H2.794V12.458C2.794 13.0153 2.904 13.404 3.124 13.624C3.35867 13.844 3.66667 13.954 4.048 13.954C4.42933 13.954 4.73 13.844 4.95 13.624C5.18467 13.404 5.302 13.0153 5.302 12.458C5.302 11.93 5.18467 11.468 4.95 11.072C4.71533 10.6613 4.422 10.28 4.07 9.928C3.718 9.56133 3.33667 9.202 2.926 8.85C2.53 8.48333 2.156 8.08733 1.804 7.662C1.452 7.23667 1.15867 6.75267 0.924 6.21C0.689333 5.66733 0.572 5.02933 0.572 4.296ZM16.9405 16H14.4985L14.0805 13.206H11.1105L10.6925 16H8.47052L10.9345 0.599999H14.4765L16.9405 16ZM11.4185 11.116H13.7505L12.5845 3.328L11.4185 11.116ZM23.1275 16C23.0982 15.8973 23.0688 15.802 23.0395 15.714C23.0102 15.626 22.9808 15.516 22.9515 15.384C22.9368 15.252 22.9222 15.0833 22.9075 14.878C22.9075 14.6727 22.9075 14.416 22.9075 14.108V11.688C22.9075 10.9693 22.7828 10.4633 22.5335 10.17C22.2842 9.87667 21.8808 9.73 21.3235 9.73H20.4875V16H18.0675V0.599999H21.7195C22.9808 0.599999 23.8902 0.893332 24.4475 1.48C25.0195 2.06667 25.3055 2.954 25.3055 4.142V5.352C25.3055 6.936 24.7775 7.97733 23.7215 8.476C24.3375 8.72533 24.7555 9.136 24.9755 9.708C25.2102 10.2653 25.3275 10.9473 25.3275 11.754V14.13C25.3275 14.5113 25.3422 14.8487 25.3715 15.142C25.4008 15.4207 25.4742 15.7067 25.5915 16H23.1275ZM20.4875 2.8V7.53H21.4335C21.8882 7.53 22.2402 7.41267 22.4895 7.178C22.7535 6.94333 22.8855 6.518 22.8855 5.902V4.384C22.8855 3.82667 22.7828 3.42333 22.5775 3.174C22.3868 2.92467 22.0788 2.8 21.6535 2.8H20.4875ZM26.9191 0.599999H30.7471C31.9644 0.599999 32.8664 0.922666 33.4531 1.568C34.0544 2.21333 34.3551 3.15933 34.3551 4.406V12.194C34.3551 13.4407 34.0544 14.3867 33.4531 15.032C32.8664 15.6773 31.9644 16 30.7471 16H26.9191V0.599999ZM29.3391 2.8V13.8H30.7031C31.0844 13.8 31.3851 13.69 31.6051 13.47C31.8251 13.25 31.9351 12.8613 31.9351 12.304V4.296C31.9351 3.73867 31.8251 3.35 31.6051 3.13C31.3851 2.91 31.0844 2.8 30.7031 2.8H29.3391ZM43.71 16H41.268L40.85 13.206H37.88L37.462 16H35.24L37.704 0.599999H41.246L43.71 16ZM38.188 11.116H40.52L39.354 3.328L38.188 11.116ZM49.897 16C49.8677 15.8973 49.8384 15.802 49.809 15.714C49.7797 15.626 49.7504 15.516 49.721 15.384C49.7064 15.252 49.6917 15.0833 49.677 14.878C49.677 14.6727 49.677 14.416 49.677 14.108V11.688C49.677 10.9693 49.5524 10.4633 49.303 10.17C49.0537 9.87667 48.6504 9.73 48.093 9.73H47.257V16H44.837V0.599999H48.489C49.7504 0.599999 50.6597 0.893332 51.217 1.48C51.789 2.06667 52.075 2.954 52.075 4.142V5.352C52.075 6.936 51.547 7.97733 50.491 8.476C51.107 8.72533 51.525 9.136 51.745 9.708C51.9797 10.2653 52.097 10.9473 52.097 11.754V14.13C52.097 14.5113 52.1117 14.8487 52.141 15.142C52.1704 15.4207 52.2437 15.7067 52.361 16H49.897ZM47.257 2.8V7.53H48.203C48.6577 7.53 49.0097 7.41267 49.259 7.178C49.523 6.94333 49.655 6.518 49.655 5.902V4.384C49.655 3.82667 49.5524 3.42333 49.347 3.174C49.1564 2.92467 48.8484 2.8 48.423 2.8H47.257ZM56.7966 4.296C56.7966 3.04933 57.0899 2.096 57.6766 1.436C58.2779 0.761333 59.1726 0.424 60.3606 0.424C61.5486 0.424 62.4359 0.761333 63.0226 1.436C63.6239 2.096 63.9246 3.04933 63.9246 4.296V4.78H61.6366V4.142C61.6366 3.58467 61.5266 3.196 61.3066 2.976C61.1013 2.74133 60.8079 2.624 60.4266 2.624C60.0453 2.624 59.7446 2.74133 59.5246 2.976C59.3193 3.196 59.2166 3.58467 59.2166 4.142C59.2166 4.67 59.3339 5.13933 59.5686 5.55C59.8033 5.946 60.0966 6.32733 60.4486 6.694C60.8006 7.046 61.1746 7.40533 61.5706 7.772C61.9813 8.124 62.3626 8.51267 62.7146 8.938C63.0666 9.36333 63.3599 9.84733 63.5946 10.39C63.8293 10.9327 63.9466 11.5707 63.9466 12.304C63.9466 13.5507 63.6386 14.5113 63.0226 15.186C62.4213 15.846 61.5266 16.176 60.3386 16.176C59.1506 16.176 58.2486 15.846 57.6326 15.186C57.0313 14.5113 56.7306 13.5507 56.7306 12.304V11.358H59.0186V12.458C59.0186 13.0153 59.1286 13.404 59.3486 13.624C59.5833 13.844 59.8913 13.954 60.2726 13.954C60.6539 13.954 60.9546 13.844 61.1746 13.624C61.4093 13.404 61.5266 13.0153 61.5266 12.458C61.5266 11.93 61.4093 11.468 61.1746 11.072C60.9399 10.6613 60.6466 10.28 60.2946 9.928C59.9426 9.56133 59.5613 9.202 59.1506 8.85C58.7546 8.48333 58.3806 8.08733 58.0286 7.662C57.6766 7.23667 57.3833 6.75267 57.1486 6.21C56.9139 5.66733 56.7966 5.02933 56.7966 4.296ZM67.5577 13.668V16H65.2257V13.668H67.5577ZM0.572 20.296C0.572 19.0493 0.865333 18.096 1.452 17.436C2.05333 16.7613 2.948 16.424 4.136 16.424C5.324 16.424 6.21133 16.7613 6.798 17.436C7.39933 18.096 7.7 19.0493 7.7 20.296V20.78H5.412V20.142C5.412 19.5847 5.302 19.196 5.082 18.976C4.87667 18.7413 4.58333 18.624 4.202 18.624C3.82067 18.624 3.52 18.7413 3.3 18.976C3.09467 19.196 2.992 19.5847 2.992 20.142C2.992 20.67 3.10933 21.1393 3.344 21.55C3.57867 21.946 3.872 22.3273 4.224 22.694C4.576 23.046 4.95 23.4053 5.346 23.772C5.75667 24.124 6.138 24.5127 6.49 24.938C6.842 25.3633 7.13533 25.8473 7.37 26.39C7.60467 26.9327 7.722 27.5707 7.722 28.304C7.722 29.5507 7.414 30.5113 6.798 31.186C6.19667 31.846 5.302 32.176 4.114 32.176C2.926 32.176 2.024 31.846 1.408 31.186C0.806667 30.5113 0.506 29.5507 0.506 28.304V27.358H2.794V28.458C2.794 29.0153 2.904 29.404 3.124 29.624C3.35867 29.844 3.66667 29.954 4.048 29.954C4.42933 29.954 4.73 29.844 4.95 29.624C5.18467 29.404 5.302 29.0153 5.302 28.458C5.302 27.93 5.18467 27.468 4.95 27.072C4.71533 26.6613 4.422 26.28 4.07 25.928C3.718 25.5613 3.33667 25.202 2.926 24.85C2.53 24.4833 2.156 24.0873 1.804 23.662C1.452 23.2367 1.15867 22.7527 0.924 22.21C0.689333 21.6673 0.572 21.0293 0.572 20.296ZM16.9405 32H14.4985L14.0805 29.206H11.1105L10.6925 32H8.47052L10.9345 16.6H14.4765L16.9405 32ZM11.4185 27.116H13.7505L12.5845 19.328L11.4185 27.116ZM23.1275 32C23.0982 31.8973 23.0688 31.802 23.0395 31.714C23.0102 31.626 22.9808 31.516 22.9515 31.384C22.9368 31.252 22.9222 31.0833 22.9075 30.878C22.9075 30.6727 22.9075 30.416 22.9075 30.108V27.688C22.9075 26.9693 22.7828 26.4633 22.5335 26.17C22.2842 25.8767 21.8808 25.73 21.3235 25.73H20.4875V32H18.0675V16.6H21.7195C22.9808 16.6 23.8902 16.8933 24.4475 17.48C25.0195 18.0667 25.3055 18.954 25.3055 20.142V21.352C25.3055 22.936 24.7775 23.9773 23.7215 24.476C24.3375 24.7253 24.7555 25.136 24.9755 25.708C25.2102 26.2653 25.3275 26.9473 25.3275 27.754V30.13C25.3275 30.5113 25.3422 30.8487 25.3715 31.142C25.4008 31.4207 25.4742 31.7067 25.5915 32H23.1275ZM20.4875 18.8V23.53H21.4335C21.8882 23.53 22.2402 23.4127 22.4895 23.178C22.7535 22.9433 22.8855 22.518 22.8855 21.902V20.384C22.8855 19.8267 22.7828 19.4233 22.5775 19.174C22.3868 18.9247 22.0788 18.8 21.6535 18.8H20.4875ZM26.9191 16.6H30.7471C31.9644 16.6 32.8664 16.9227 33.4531 17.568C34.0544 18.2133 34.3551 19.1593 34.3551 20.406V28.194C34.3551 29.4407 34.0544 30.3867 33.4531 31.032C32.8664 31.6773 31.9644 32 30.7471 32H26.9191V16.6ZM29.3391 18.8V29.8H30.7031C31.0844 29.8 31.3851 29.69 31.6051 29.47C31.8251 29.25 31.9351 28.8613 31.9351 28.304V20.296C31.9351 19.7387 31.8251 19.35 31.6051 19.13C31.3851 18.91 31.0844 18.8 30.7031 18.8H29.3391ZM43.71 32H41.268L40.85 29.206H37.88L37.462 32H35.24L37.704 16.6H41.246L43.71 32ZM38.188 27.116H40.52L39.354 19.328L38.188 27.116ZM49.897 32C49.8677 31.8973 49.8384 31.802 49.809 31.714C49.7797 31.626 49.7504 31.516 49.721 31.384C49.7064 31.252 49.6917 31.0833 49.677 30.878C49.677 30.6727 49.677 30.416 49.677 30.108V27.688C49.677 26.9693 49.5524 26.4633 49.303 26.17C49.0537 25.8767 48.6504 25.73 48.093 25.73H47.257V32H44.837V16.6H48.489C49.7504 16.6 50.6597 16.8933 51.217 17.48C51.789 18.0667 52.075 18.954 52.075 20.142V21.352C52.075 22.936 51.547 23.9773 50.491 24.476C51.107 24.7253 51.525 25.136 51.745 25.708C51.9797 26.2653 52.097 26.9473 52.097 27.754V30.13C52.097 30.5113 52.1117 30.8487 52.141 31.142C52.1704 31.4207 52.2437 31.7067 52.361 32H49.897ZM47.257 18.8V23.53H48.203C48.6577 23.53 49.0097 23.4127 49.259 23.178C49.523 22.9433 49.655 22.518 49.655 21.902V20.384C49.655 19.8267 49.5524 19.4233 49.347 19.174C49.1564 18.9247 48.8484 18.8 48.423 18.8H47.257ZM55.9106 28.458C55.9106 29.0153 56.0206 29.4113 56.2406 29.646C56.4753 29.866 56.7833 29.976 57.1646 29.976C57.5459 29.976 57.8466 29.866 58.0666 29.646C58.3013 29.4113 58.4186 29.0153 58.4186 28.458V20.142C58.4186 19.5847 58.3013 19.196 58.0666 18.976C57.8466 18.7413 57.5459 18.624 57.1646 18.624C56.7833 18.624 56.4753 18.7413 56.2406 18.976C56.0206 19.196 55.9106 19.5847 55.9106 20.142V28.458ZM53.4906 20.296C53.4906 19.0493 53.8059 18.096 54.4366 17.436C55.0673 16.7613 55.9766 16.424 57.1646 16.424C58.3526 16.424 59.2619 16.7613 59.8926 17.436C60.5233 18.096 60.8386 19.0493 60.8386 20.296V28.304C60.8386 29.5507 60.5233 30.5113 59.8926 31.186C59.2619 31.846 58.3526 32.176 57.1646 32.176C55.9766 32.176 55.0673 31.846 54.4366 31.186C53.8059 30.5113 53.4906 29.5507 53.4906 28.304V20.296ZM66.0418 29.162L67.8898 16.6H70.1118L67.7358 32H64.1278L61.7518 16.6H64.1938L66.0418 29.162Z" fill="white"/>
</svg>
