<svg width="96" height="44" viewBox="0 0 96 45" fill="none" xmlns="http://www.w3.org/2000/svg">
<path d="M0.78 6.04C0.78 4.34 1.18 3.04 1.98 2.14C2.8 1.22 4.02 0.76 5.64 0.76C7.26 0.76 8.47 1.22 9.27 2.14C10.09 3.04 10.5 4.34 10.5 6.04V6.7H7.38V5.83C7.38 5.07 7.23 4.54 6.93 4.24C6.65 3.92 6.25 3.76 5.73 3.76C5.21 3.76 4.8 3.92 4.5 4.24C4.22 4.54 4.08 5.07 4.08 5.83C4.08 6.55 4.24 7.19 4.56 7.75C4.88 8.29 5.28 8.81 5.76 9.31C6.24 9.79 6.75 10.28 7.29 10.78C7.85 11.26 8.37 11.79 8.85 12.37C9.33 12.95 9.73 13.61 10.05 14.35C10.37 15.09 10.53 15.96 10.53 16.96C10.53 18.66 10.11 19.97 9.27 20.89C8.45 21.79 7.23 22.24 5.61 22.24C3.99 22.24 2.76 21.79 1.92 20.89C1.1 19.97 0.69 18.66 0.69 16.96V15.67H3.81V17.17C3.81 17.93 3.96 18.46 4.26 18.76C4.58 19.06 5 19.21 5.52 19.21C6.04 19.21 6.45 19.06 6.75 18.76C7.07 18.46 7.23 17.93 7.23 17.17C7.23 16.45 7.07 15.82 6.75 15.28C6.43 14.72 6.03 14.2 5.55 13.72C5.07 13.22 4.55 12.73 3.99 12.25C3.45 11.75 2.94 11.21 2.46 10.63C1.98 10.05 1.58 9.39 1.26 8.65C0.94 7.91 0.78 7.04 0.78 6.04ZM23.1007 22H19.7707L19.2007 18.19H15.1507L14.5807 22H11.5507L14.9107 0.999999H19.7407L23.1007 22ZM15.5707 15.34H18.7507L17.1607 4.72L15.5707 15.34ZM31.5375 22C31.4975 21.86 31.4575 21.73 31.4175 21.61C31.3775 21.49 31.3375 21.34 31.2975 21.16C31.2775 20.98 31.2575 20.75 31.2375 20.47C31.2375 20.19 31.2375 19.84 31.2375 19.42V16.12C31.2375 15.14 31.0675 14.45 30.7275 14.05C30.3875 13.65 29.8375 13.45 29.0775 13.45H27.9375V22H24.6375V0.999999H29.6175C31.3375 0.999999 32.5775 1.4 33.3375 2.2C34.1175 3 34.5075 4.21 34.5075 5.83V7.48C34.5075 9.64 33.7875 11.06 32.3475 11.74C33.1875 12.08 33.7575 12.64 34.0575 13.42C34.3775 14.18 34.5375 15.11 34.5375 16.21V19.45C34.5375 19.97 34.5575 20.43 34.5975 20.83C34.6375 21.21 34.7375 21.6 34.8975 22H31.5375ZM27.9375 4V10.45H29.2275C29.8475 10.45 30.3275 10.29 30.6675 9.97C31.0275 9.65 31.2075 9.07 31.2075 8.23V6.16C31.2075 5.4 31.0675 4.85 30.7875 4.51C30.5275 4.17 30.1075 4 29.5275 4H27.9375ZM36.7078 0.999999H41.9278C43.5878 0.999999 44.8178 1.44 45.6178 2.32C46.4378 3.2 46.8478 4.49 46.8478 6.19V16.81C46.8478 18.51 46.4378 19.8 45.6178 20.68C44.8178 21.56 43.5878 22 41.9278 22H36.7078V0.999999ZM40.0078 4V19H41.8678C42.3878 19 42.7978 18.85 43.0978 18.55C43.3978 18.25 43.5478 17.72 43.5478 16.96V6.04C43.5478 5.28 43.3978 4.75 43.0978 4.45C42.7978 4.15 42.3878 4 41.8678 4H40.0078ZM59.6046 22H56.2746L55.7046 18.19H51.6546L51.0846 22H48.0546L51.4146 0.999999H56.2446L59.6046 22ZM52.0746 15.34H55.2546L53.6646 4.72L52.0746 15.34ZM68.0414 22C68.0014 21.86 67.9614 21.73 67.9214 21.61C67.8814 21.49 67.8414 21.34 67.8014 21.16C67.7814 20.98 67.7614 20.75 67.7414 20.47C67.7414 20.19 67.7414 19.84 67.7414 19.42V16.12C67.7414 15.14 67.5714 14.45 67.2314 14.05C66.8914 13.65 66.3414 13.45 65.5814 13.45H64.4414V22H61.1414V0.999999H66.1214C67.8414 0.999999 69.0814 1.4 69.8414 2.2C70.6214 3 71.0114 4.21 71.0114 5.83V7.48C71.0114 9.64 70.2914 11.06 68.8514 11.74C69.6914 12.08 70.2614 12.64 70.5614 13.42C70.8814 14.18 71.0414 15.11 71.0414 16.21V19.45C71.0414 19.97 71.0614 20.43 71.1014 20.83C71.1414 21.21 71.2414 21.6 71.4014 22H68.0414ZM64.4414 4V10.45H65.7314C66.3514 10.45 66.8314 10.29 67.1714 9.97C67.5314 9.65 67.7114 9.07 67.7114 8.23V6.16C67.7114 5.4 67.5714 4.85 67.2914 4.51C67.0314 4.17 66.6114 4 66.0314 4H64.4414ZM77.4499 6.04C77.4499 4.34 77.8499 3.04 78.6499 2.14C79.4699 1.22 80.6899 0.76 82.3099 0.76C83.9299 0.76 85.1399 1.22 85.9399 2.14C86.7599 3.04 87.1699 4.34 87.1699 6.04V6.7H84.0499V5.83C84.0499 5.07 83.8999 4.54 83.5999 4.24C83.3199 3.92 82.9199 3.76 82.3999 3.76C81.8799 3.76 81.4699 3.92 81.1699 4.24C80.8899 4.54 80.7499 5.07 80.7499 5.83C80.7499 6.55 80.9099 7.19 81.2299 7.75C81.5499 8.29 81.9499 8.81 82.4299 9.31C82.9099 9.79 83.4199 10.28 83.9599 10.78C84.5199 11.26 85.0399 11.79 85.5199 12.37C85.9999 12.95 86.3999 13.61 86.7199 14.35C87.0399 15.09 87.1999 15.96 87.1999 16.96C87.1999 18.66 86.7799 19.97 85.9399 20.89C85.1199 21.79 83.8999 22.24 82.2799 22.24C80.6599 22.24 79.4299 21.79 78.5899 20.89C77.7699 19.97 77.3599 18.66 77.3599 16.96V15.67H80.4799V17.17C80.4799 17.93 80.6299 18.46 80.9299 18.76C81.2499 19.06 81.6699 19.21 82.1899 19.21C82.7099 19.21 83.1199 19.06 83.4199 18.76C83.7399 18.46 83.8999 17.93 83.8999 17.17C83.8999 16.45 83.7399 15.82 83.4199 15.28C83.0999 14.72 82.6999 14.2 82.2199 13.72C81.7399 13.22 81.2199 12.73 80.6599 12.25C80.1199 11.75 79.6099 11.21 79.1299 10.63C78.6499 10.05 78.2499 9.39 77.9299 8.65C77.6099 7.91 77.4499 7.04 77.4499 6.04ZM92.1241 18.82V22H88.9441V18.82H92.1241ZM0.78 28.04C0.78 26.34 1.18 25.04 1.98 24.14C2.8 23.22 4.02 22.76 5.64 22.76C7.26 22.76 8.47 23.22 9.27 24.14C10.09 25.04 10.5 26.34 10.5 28.04V28.7H7.38V27.83C7.38 27.07 7.23 26.54 6.93 26.24C6.65 25.92 6.25 25.76 5.73 25.76C5.21 25.76 4.8 25.92 4.5 26.24C4.22 26.54 4.08 27.07 4.08 27.83C4.08 28.55 4.24 29.19 4.56 29.75C4.88 30.29 5.28 30.81 5.76 31.31C6.24 31.79 6.75 32.28 7.29 32.78C7.85 33.26 8.37 33.79 8.85 34.37C9.33 34.95 9.73 35.61 10.05 36.35C10.37 37.09 10.53 37.96 10.53 38.96C10.53 40.66 10.11 41.97 9.27 42.89C8.45 43.79 7.23 44.24 5.61 44.24C3.99 44.24 2.76 43.79 1.92 42.89C1.1 41.97 0.69 40.66 0.69 38.96V37.67H3.81V39.17C3.81 39.93 3.96 40.46 4.26 40.76C4.58 41.06 5 41.21 5.52 41.21C6.04 41.21 6.45 41.06 6.75 40.76C7.07 40.46 7.23 39.93 7.23 39.17C7.23 38.45 7.07 37.82 6.75 37.28C6.43 36.72 6.03 36.2 5.55 35.72C5.07 35.22 4.55 34.73 3.99 34.25C3.45 33.75 2.94 33.21 2.46 32.63C1.98 32.05 1.58 31.39 1.26 30.65C0.94 29.91 0.78 29.04 0.78 28.04ZM23.1007 44H19.7707L19.2007 40.19H15.1507L14.5807 44H11.5507L14.9107 23H19.7407L23.1007 44ZM15.5707 37.34H18.7507L17.1607 26.72L15.5707 37.34ZM31.5375 44C31.4975 43.86 31.4575 43.73 31.4175 43.61C31.3775 43.49 31.3375 43.34 31.2975 43.16C31.2775 42.98 31.2575 42.75 31.2375 42.47C31.2375 42.19 31.2375 41.84 31.2375 41.42V38.12C31.2375 37.14 31.0675 36.45 30.7275 36.05C30.3875 35.65 29.8375 35.45 29.0775 35.45H27.9375V44H24.6375V23H29.6175C31.3375 23 32.5775 23.4 33.3375 24.2C34.1175 25 34.5075 26.21 34.5075 27.83V29.48C34.5075 31.64 33.7875 33.06 32.3475 33.74C33.1875 34.08 33.7575 34.64 34.0575 35.42C34.3775 36.18 34.5375 37.11 34.5375 38.21V41.45C34.5375 41.97 34.5575 42.43 34.5975 42.83C34.6375 43.21 34.7375 43.6 34.8975 44H31.5375ZM27.9375 26V32.45H29.2275C29.8475 32.45 30.3275 32.29 30.6675 31.97C31.0275 31.65 31.2075 31.07 31.2075 30.23V28.16C31.2075 27.4 31.0675 26.85 30.7875 26.51C30.5275 26.17 30.1075 26 29.5275 26H27.9375ZM36.7078 23H41.9278C43.5878 23 44.8178 23.44 45.6178 24.32C46.4378 25.2 46.8478 26.49 46.8478 28.19V38.81C46.8478 40.51 46.4378 41.8 45.6178 42.68C44.8178 43.56 43.5878 44 41.9278 44H36.7078V23ZM40.0078 26V41H41.8678C42.3878 41 42.7978 40.85 43.0978 40.55C43.3978 40.25 43.5478 39.72 43.5478 38.96V28.04C43.5478 27.28 43.3978 26.75 43.0978 26.45C42.7978 26.15 42.3878 26 41.8678 26H40.0078ZM59.6046 44H56.2746L55.7046 40.19H51.6546L51.0846 44H48.0546L51.4146 23H56.2446L59.6046 44ZM52.0746 37.34H55.2546L53.6646 26.72L52.0746 37.34ZM68.0414 44C68.0014 43.86 67.9614 43.73 67.9214 43.61C67.8814 43.49 67.8414 43.34 67.8014 43.16C67.7814 42.98 67.7614 42.75 67.7414 42.47C67.7414 42.19 67.7414 41.84 67.7414 41.42V38.12C67.7414 37.14 67.5714 36.45 67.2314 36.05C66.8914 35.65 66.3414 35.45 65.5814 35.45H64.4414V44H61.1414V23H66.1214C67.8414 23 69.0814 23.4 69.8414 24.2C70.6214 25 71.0114 26.21 71.0114 27.83V29.48C71.0114 31.64 70.2914 33.06 68.8514 33.74C69.6914 34.08 70.2614 34.64 70.5614 35.42C70.8814 36.18 71.0414 37.11 71.0414 38.21V41.45C71.0414 41.97 71.0614 42.43 71.1014 42.83C71.1414 43.21 71.2414 43.6 71.4014 44H68.0414ZM64.4414 26V32.45H65.7314C66.3514 32.45 66.8314 32.29 67.1714 31.97C67.5314 31.65 67.7114 31.07 67.7114 30.23V28.16C67.7114 27.4 67.5714 26.85 67.2914 26.51C67.0314 26.17 66.6114 26 66.0314 26H64.4414ZM76.2417 39.17C76.2417 39.93 76.3917 40.47 76.6917 40.79C77.0117 41.09 77.4317 41.24 77.9517 41.24C78.4717 41.24 78.8817 41.09 79.1817 40.79C79.5017 40.47 79.6617 39.93 79.6617 39.17V27.83C79.6617 27.07 79.5017 26.54 79.1817 26.24C78.8817 25.92 78.4717 25.76 77.9517 25.76C77.4317 25.76 77.0117 25.92 76.6917 26.24C76.3917 26.54 76.2417 27.07 76.2417 27.83V39.17ZM72.9417 28.04C72.9417 26.34 73.3717 25.04 74.2317 24.14C75.0917 23.22 76.3317 22.76 77.9517 22.76C79.5717 22.76 80.8117 23.22 81.6717 24.14C82.5317 25.04 82.9617 26.34 82.9617 28.04V38.96C82.9617 40.66 82.5317 41.97 81.6717 42.89C80.8117 43.79 79.5717 44.24 77.9517 44.24C76.3317 44.24 75.0917 43.79 74.2317 42.89C73.3717 41.97 72.9417 40.66 72.9417 38.96V28.04ZM90.057 40.13L92.577 23H95.607L92.367 44H87.447L84.207 23H87.537L90.057 40.13Z" fill="white"/>
</svg>
